<svg width="28" height="28" viewBox="0 0 28 28" fill="none" xmlns="http://www.w3.org/2000/svg">
<rect x="1" y="1" width="26" height="26" rx="13" fill="#EFEFEF"/>
<rect x="1" y="1" width="26" height="26" rx="13" stroke="white" stroke-width="2"/>
<path fill-rule="evenodd" clip-rule="evenodd" d="M16.9422 8.56178C16.6297 8.24936 16.1232 8.24936 15.8108 8.56178L9.31412 15.0584C9.04364 15.3289 8.87902 15.6873 8.85008 16.0688L8.68372 18.2615C8.64666 18.75 9.05343 19.1568 9.54195 19.1197L11.7347 18.9534C12.1161 18.9244 12.4745 18.7598 12.745 18.4893L17.0624 14.1719L13.6321 10.7416L14.3183 10.0555L17.7486 13.4858L19.2417 11.9927C19.5541 11.6802 19.5541 11.1737 19.2417 10.8613L16.9422 8.56178Z" fill="#C4C4C4"/>
<rect x="8.80029" y="20" width="11.2" height="0.8" fill="#C4C4C4"/>
</svg>
