<svg width="264" height="204" viewBox="0 0 264 204" fill="none" xmlns="http://www.w3.org/2000/svg">
<rect width="264" height="204" fill="#FCFCFC"/>
<circle cx="132" cy="60" r="60" fill="url(#paint0_linear_1240_71249)"/>
<g filter="url(#filter0_di_1240_71249)">
<path fill-rule="evenodd" clip-rule="evenodd" d="M128.311 25.5H133C136.314 25.5 139 28.1863 139 31.5V34.5C139 36.1569 137.657 37.5 136 37.5H109C107.343 37.5 106 36.1569 106 34.5V31.5C106 28.1863 108.686 25.5 112 25.5H116.689C117.355 22.9122 119.704 21 122.5 21C125.296 21 127.645 22.9122 128.311 25.5Z" fill="#D9D9D9"/>
</g>
<g filter="url(#filter1_b_1240_71249)">
<rect x="94" y="30" width="57" height="69" rx="6" fill="url(#paint1_linear_1240_71249)" fill-opacity="0.5"/>
</g>
<g filter="url(#filter2_bdi_1240_71249)">
<path fill-rule="evenodd" clip-rule="evenodd" d="M163.192 47.5607C162.607 46.9749 161.657 46.9749 161.071 47.5607L154.379 54.2529L167.299 67.1732L164.715 69.7575L151.795 56.8371L134.741 73.891C134.234 74.3981 133.925 75.0702 133.871 75.7853L133.026 86.9179C132.957 87.8338 133.719 88.5965 134.635 88.527L145.768 87.6824C146.483 87.6282 147.155 87.3195 147.662 86.8124L173.993 60.482C174.578 59.8963 174.578 58.9465 173.993 58.3607L163.192 47.5607Z" fill="url(#paint2_linear_1240_71249)" fill-opacity="0.8" shape-rendering="crispEdges"/>
</g>
<g filter="url(#filter3_bdi_1240_71249)">
<rect x="104.5" y="43.5" width="36" height="3" rx="1.5" fill="url(#paint3_linear_1240_71249)" fill-opacity="0.5" shape-rendering="crispEdges"/>
</g>
<g filter="url(#filter4_bdi_1240_71249)">
<rect x="104.5" y="54" width="36" height="3" rx="1.5" fill="url(#paint4_linear_1240_71249)" fill-opacity="0.5" shape-rendering="crispEdges"/>
</g>
<g filter="url(#filter5_bdi_1240_71249)">
<rect x="104.5" y="64.5" width="24" height="3" rx="1.5" fill="url(#paint5_linear_1240_71249)" fill-opacity="0.5" shape-rendering="crispEdges"/>
</g>
<g filter="url(#filter6_bdi_1240_71249)">
<rect x="104.5" y="75" width="15" height="3" rx="1.5" fill="url(#paint6_linear_1240_71249)" fill-opacity="0.5" shape-rendering="crispEdges"/>
</g>
<path d="M70.0811 164.232V165.393H55.8252V164.232H70.0811ZM68.4111 161.613V162.738H57.6357V157.43H68.3057V158.59H58.9893V161.613H68.4111ZM62.9443 166.764C66.3018 166.764 68.3057 167.783 68.3232 169.576C68.3057 171.387 66.3018 172.389 62.9443 172.389C59.5693 172.389 57.5479 171.387 57.5479 169.576C57.5479 167.783 59.5693 166.764 62.9443 166.764ZM62.9443 167.836C60.4307 167.854 58.9365 168.486 58.9541 169.576C58.9365 170.684 60.4307 171.299 62.9443 171.299C65.4229 171.299 66.9346 170.684 66.9346 169.576C66.9346 168.486 65.4229 167.854 62.9443 167.836ZM85.6729 165.41V166.553H71.3643V165.41H77.833V163.758H73.2275V159.943H82.4385V158.326H73.1748V157.201H83.8271V160.98H74.5986V162.65H84.1611V163.758H79.1865V165.41H85.6729ZM83.915 167.748V172.283H82.5264V168.873H72.9639V167.748H83.915ZM96.0264 161.93V163.055H92.8623V165.234C94.3213 165.173 95.7803 165.067 97.1338 164.918L97.2393 165.938C93.8818 166.395 90.1553 166.5 87.2197 166.5L87.0088 165.375C88.3799 165.366 89.918 165.349 91.4912 165.287V163.055H88.4326V157.816H95.9033V158.959H89.8213V161.93H96.0264ZM99.8232 156.814V168.504H98.4346V156.814H99.8232ZM100.333 170.93V172.09H89.6807V167.695H91.0518V170.93H100.333ZM113.71 158.168V159.311H109.087V163.986C111.17 163.995 112.699 163.916 114.483 163.547L114.606 164.689C112.655 165.059 111.056 165.129 108.735 165.129H107.733V158.168H113.71ZM120.284 156.797V167.133H118.966V162.053H116.769V165.779H115.485V157.096H116.769V160.893H118.966V156.797H120.284ZM115.749 167.027C115.749 169.119 118.386 170.859 121.128 171.281L120.53 172.354C118.21 171.932 116.004 170.701 115.063 168.926C114.114 170.701 111.899 171.932 109.597 172.354L108.999 171.281C111.724 170.859 114.36 169.119 114.378 167.027V166.43H115.749V167.027ZM134.997 157.482V158.484C134.997 159.548 134.997 160.884 134.646 162.65H136.878V163.758H122.569V162.65H133.257C133.608 160.91 133.626 159.627 133.626 158.607H124.38V157.482H134.997ZM135.05 165.34V169.277H125.681V171.123H135.454V172.248H124.292V168.188H133.679V166.447H124.274V165.34H135.05ZM151.011 156.797V172.459H149.622V156.797H151.011ZM142.696 158.01C145.017 158.027 146.687 160.137 146.687 163.459C146.687 166.781 145.017 168.891 142.696 168.891C140.358 168.891 138.706 166.781 138.706 163.459C138.706 160.137 140.358 158.027 142.696 158.01ZM142.696 159.24C141.132 159.258 140.042 160.91 140.042 163.459C140.042 166.008 141.132 167.66 142.696 167.66C144.261 167.66 145.351 166.008 145.351 163.459C145.351 160.91 144.261 159.258 142.696 159.24ZM161.312 165.973V167.924H164.159V165.973H165.442V172.213H160.011V165.973H161.312ZM161.312 171.123H164.159V168.979H161.312V171.123ZM169.907 167.203C169.89 168.855 170.874 170.578 172.79 171.281L172.069 172.336C170.628 171.756 169.679 170.657 169.204 169.348C168.703 170.631 167.754 171.738 166.374 172.336L165.653 171.281C167.534 170.508 168.536 168.785 168.536 167.203V165.867H169.907V167.203ZM162.507 157.5C164.599 157.5 166.198 158.687 166.497 160.488H169.767V156.797H171.155V165.076H169.767V161.631H166.515C166.233 163.477 164.625 164.689 162.507 164.689C160.134 164.689 158.446 163.23 158.446 161.086C158.446 158.959 160.134 157.5 162.507 157.5ZM162.507 158.66C160.907 158.66 159.765 159.662 159.765 161.086C159.765 162.527 160.907 163.547 162.507 163.547C164.089 163.547 165.214 162.527 165.214 161.086C165.214 159.662 164.089 158.66 162.507 158.66ZM177.958 158.01C180.085 158.027 181.614 159.847 181.843 162.773H185.341V156.797H186.712V172.459H185.341V163.916H181.86C181.693 166.975 180.138 168.891 177.958 168.891C175.655 168.891 174.038 166.781 174.038 163.459C174.038 160.137 175.655 158.027 177.958 158.01ZM177.958 159.24C176.411 159.258 175.356 160.91 175.356 163.459C175.356 166.008 176.411 167.66 177.958 167.66C179.487 167.66 180.56 166.008 180.56 163.459C180.56 160.91 179.487 159.258 177.958 159.24ZM203.622 169.26V170.42H189.313V169.26H192.864V165.041C191.528 164.347 190.72 163.222 190.72 161.807C190.72 159.381 193.093 157.799 196.433 157.781C199.772 157.799 202.146 159.381 202.146 161.807C202.146 163.195 201.363 164.312 200.071 165.006V169.26H203.622ZM196.433 158.924C193.866 158.906 192.056 160.066 192.056 161.807C192.056 163.547 193.866 164.725 196.433 164.725C198.981 164.725 200.81 163.547 200.81 161.807C200.81 160.066 198.981 158.906 196.433 158.924ZM194.218 169.26H198.683V165.533C198.006 165.718 197.25 165.814 196.433 165.814C195.633 165.814 194.886 165.727 194.218 165.551V169.26ZM206.522 171.105C205.907 171.105 205.38 170.596 205.397 169.963C205.38 169.348 205.907 168.838 206.522 168.838C207.138 168.838 207.647 169.348 207.647 169.963C207.647 170.596 207.138 171.105 206.522 171.105ZM8.10059 184.168V185.311H3.47754V189.986C5.56055 189.995 7.08984 189.916 8.87402 189.547L8.99707 190.689C7.0459 191.059 5.44629 191.129 3.12598 191.129H2.12402V184.168H8.10059ZM14.6748 182.797V193.133H13.3564V188.053H11.1592V191.779H9.87598V183.096H11.1592V186.893H13.3564V182.797H14.6748ZM10.1396 193.027C10.1396 195.119 12.7764 196.859 15.5186 197.281L14.9209 198.354C12.6006 197.932 10.3945 196.701 9.4541 194.926C8.50488 196.701 6.29004 197.932 3.9873 198.354L3.38965 197.281C6.11426 196.859 8.75098 195.119 8.76855 193.027V192.43H10.1396V193.027ZM29.3877 183.482V184.484C29.3877 185.548 29.3877 186.884 29.0361 188.65H31.2686V189.758H16.96V188.65H27.6475C27.999 186.91 28.0166 185.627 28.0166 184.607H18.7705V183.482H29.3877ZM29.4404 191.34V195.277H20.0713V197.123H29.8447V198.248H18.6826V194.188H28.0693V192.447H18.665V191.34H29.4404ZM39.6357 183.078C43.1162 183.078 45.1553 184.027 45.1553 185.768C45.1553 187.543 43.1162 188.492 39.6357 188.51C36.1553 188.492 34.0986 187.543 34.0986 185.768C34.0986 184.027 36.1553 183.078 39.6357 183.078ZM39.6357 184.115C37.0342 184.115 35.5225 184.748 35.54 185.768C35.5225 186.857 37.0342 187.455 39.6357 187.455C42.2197 187.455 43.749 186.857 43.749 185.768C43.749 184.748 42.2197 184.115 39.6357 184.115ZM46.7549 189.564V190.689H32.5166V189.564H46.7549ZM44.9268 192.043V195.541H35.6455V197.158H45.4014V198.248H34.2744V194.521H43.5732V193.098H34.2393V192.043H44.9268ZM66.8467 190.232V191.393H52.5908V190.232H66.8467ZM65.1768 187.613V188.738H54.4014V183.43H65.0713V184.59H55.7549V187.613H65.1768ZM59.71 192.764C63.0674 192.764 65.0713 193.783 65.0889 195.576C65.0713 197.387 63.0674 198.389 59.71 198.389C56.335 198.389 54.3135 197.387 54.3135 195.576C54.3135 193.783 56.335 192.764 59.71 192.764ZM59.71 193.836C57.1963 193.854 55.7021 194.486 55.7197 195.576C55.7021 196.684 57.1963 197.299 59.71 197.299C62.1885 197.299 63.7002 196.684 63.7002 195.576C63.7002 194.486 62.1885 193.854 59.71 193.836ZM82.4385 191.41V192.553H68.1299V191.41H74.5986V189.758H69.9932V185.943H79.2041V184.326H69.9404V183.201H80.5928V186.98H71.3643V188.65H80.9268V189.758H75.9521V191.41H82.4385ZM80.6807 193.748V198.283H79.292V194.873H69.7295V193.748H80.6807ZM95.7979 182.797V189.248H98.417V190.391H95.7979V198.424H94.4268V182.797H95.7979ZM92.915 185.311V186.453H83.6162V185.311H87.6416V182.99H89.0127V185.311H92.915ZM88.3447 187.754C90.5596 187.754 92.1592 189.23 92.1768 191.34C92.1592 193.449 90.5596 194.926 88.3447 194.926C86.1123 194.926 84.4951 193.449 84.5127 191.34C84.4951 189.23 86.1123 187.754 88.3447 187.754ZM88.3447 188.914C86.8857 188.914 85.8135 189.934 85.8311 191.34C85.8135 192.764 86.8857 193.766 88.3447 193.748C89.7861 193.766 90.8408 192.764 90.8584 191.34C90.8408 189.934 89.7861 188.914 88.3447 188.914ZM111.794 184.379V185.943C111.776 187.859 111.776 190.004 111.214 193.15L109.808 192.992C110.405 190.004 110.405 187.807 110.405 185.943V185.521H100.772V184.379H111.794ZM113.499 195.066V196.209H99.2607V195.066H104.851V189.477H106.204V195.066H113.499ZM124.45 183.939C126.911 183.939 128.651 185.434 128.651 187.613C128.651 189.793 126.911 191.287 124.45 191.287C121.989 191.287 120.214 189.793 120.231 187.613C120.214 185.434 121.989 183.939 124.45 183.939ZM124.45 185.152C122.78 185.152 121.567 186.154 121.585 187.613C121.567 189.072 122.78 190.074 124.45 190.074C126.103 190.074 127.298 189.072 127.298 187.613C127.298 186.154 126.103 185.152 124.45 185.152ZM132.149 182.797V198.459H130.778V182.797H132.149ZM119.423 193.836C122.306 193.836 126.278 193.818 129.741 193.309L129.847 194.328C126.278 194.996 122.429 195.014 119.616 195.014L119.423 193.836ZM147.847 182.814V194.469H146.458V190.689H142.257V189.547H146.458V187.174H142.468C141.369 189.644 138.97 191.524 135.771 192.553L135.155 191.445C138.812 190.241 141.325 187.991 141.624 185.17H135.929V184.027H143.136C143.136 184.73 143.039 185.407 142.872 186.049H146.458V182.814H147.847ZM148.251 196.93V198.09H137.897V193.309H139.304V196.93H148.251ZM157.567 183.078C161.048 183.078 163.087 184.027 163.087 185.768C163.087 187.543 161.048 188.492 157.567 188.51C154.087 188.492 152.03 187.543 152.03 185.768C152.03 184.027 154.087 183.078 157.567 183.078ZM157.567 184.115C154.966 184.115 153.454 184.748 153.472 185.768C153.454 186.857 154.966 187.455 157.567 187.455C160.151 187.455 161.681 186.857 161.681 185.768C161.681 184.748 160.151 184.115 157.567 184.115ZM164.687 189.564V190.689H150.448V189.564H164.687ZM162.858 192.043V195.541H153.577V197.158H163.333V198.248H152.206V194.521H161.505V193.098H152.171V192.043H162.858ZM177.589 192.676C180.946 192.676 183.073 193.73 183.073 195.541C183.073 197.334 180.946 198.389 177.589 198.389C174.249 198.389 172.122 197.334 172.122 195.541C172.122 193.73 174.249 192.676 177.589 192.676ZM177.589 193.73C175.093 193.748 173.476 194.434 173.493 195.541C173.476 196.631 175.093 197.299 177.589 197.299C180.085 197.299 181.685 196.631 181.702 195.541C181.685 194.434 180.085 193.748 177.589 193.73ZM182.95 183.605V184.924C182.95 186.189 182.95 187.455 182.511 189.072L181.157 188.914C181.579 187.297 181.579 186.154 181.579 184.924V184.73H172.228V183.605H182.95ZM184.761 190.092V191.217H170.54V190.092H176.429V187.068H177.782V190.092H184.761ZM200.37 191.709V192.852H196.591V198.424H195.202V192.852H191.194V198.424H189.771V192.852H186.062V191.709H200.37ZM193.181 183.43C196.468 183.43 198.683 184.748 198.683 186.84C198.683 188.914 196.468 190.232 193.181 190.215C189.894 190.232 187.679 188.914 187.679 186.84C187.679 184.748 189.894 183.43 193.181 183.43ZM193.181 184.555C190.737 184.555 189.085 185.451 189.103 186.84C189.085 188.229 190.737 189.107 193.181 189.107C195.606 189.107 197.276 188.229 197.276 186.84C197.276 185.451 195.606 184.555 193.181 184.555ZM209.44 185.504V186.629H201.601V185.504H204.853V183.271H206.224V185.504H209.44ZM205.521 187.684C207.489 187.684 208.896 189.16 208.913 191.234C208.896 193.326 207.489 194.82 205.521 194.82C203.569 194.82 202.163 193.326 202.163 191.234C202.163 189.16 203.569 187.684 205.521 187.684ZM205.521 188.844C204.29 188.861 203.394 189.863 203.394 191.234C203.394 192.623 204.29 193.625 205.521 193.607C206.769 193.625 207.683 192.623 207.683 191.234C207.683 189.863 206.769 188.861 205.521 188.844ZM214.942 182.797V198.424H213.624V190.531H211.55V197.65H210.249V183.184H211.55V189.389H213.624V182.797H214.942ZM231.501 195.277V196.42H217.192V195.277H223.626V191.902H218.88V183.904H220.269V186.734H228.39V183.904H229.743V191.902H224.979V195.277H231.501ZM220.269 190.777H228.39V187.859H220.269V190.777ZM237.39 187.244C237.39 189.723 238.603 192.412 240.677 193.643L239.886 194.715C238.383 193.801 237.302 192.131 236.757 190.232C236.177 192.307 235.017 194.091 233.452 195.049L232.573 194.012C234.735 192.746 236.054 189.969 236.054 187.297V184.273H237.39V187.244ZM246.144 182.797V198.424H244.808V182.797H246.144ZM242.909 183.131V197.633H241.608V189.582H238.954V188.404H241.608V183.131H242.909ZM262.614 195.26V196.42H248.306V195.26H251.856V191.041C250.521 190.347 249.712 189.222 249.712 187.807C249.712 185.381 252.085 183.799 255.425 183.781C258.765 183.799 261.138 185.381 261.138 187.807C261.138 189.195 260.355 190.312 259.063 191.006V195.26H262.614ZM255.425 184.924C252.858 184.906 251.048 186.066 251.048 187.807C251.048 189.547 252.858 190.725 255.425 190.725C257.974 190.725 259.802 189.547 259.802 187.807C259.802 186.066 257.974 184.906 255.425 184.924ZM253.21 195.26H257.675V191.533C256.998 191.718 256.242 191.814 255.425 191.814C254.625 191.814 253.878 191.727 253.21 191.551V195.26Z" fill="#999999"/>
<defs>
<filter id="filter0_di_1240_71249" x="97" y="18" width="51" height="37.5" filterUnits="userSpaceOnUse" color-interpolation-filters="sRGB">
<feFlood flood-opacity="0" result="BackgroundImageFix"/>
<feColorMatrix in="SourceAlpha" type="matrix" values="0 0 0 0 0 0 0 0 0 0 0 0 0 0 0 0 0 0 127 0" result="hardAlpha"/>
<feOffset dy="9"/>
<feGaussianBlur stdDeviation="4.5"/>
<feComposite in2="hardAlpha" operator="out"/>
<feColorMatrix type="matrix" values="0 0 0 0 0.956863 0 0 0 0 0.956863 0 0 0 0 0.956863 0 0 0 0.2 0"/>
<feBlend mode="normal" in2="BackgroundImageFix" result="effect1_dropShadow_1240_71249"/>
<feBlend mode="normal" in="SourceGraphic" in2="effect1_dropShadow_1240_71249" result="shape"/>
<feColorMatrix in="SourceAlpha" type="matrix" values="0 0 0 0 0 0 0 0 0 0 0 0 0 0 0 0 0 0 127 0" result="hardAlpha"/>
<feOffset dx="-3" dy="-3"/>
<feGaussianBlur stdDeviation="3"/>
<feComposite in2="hardAlpha" operator="arithmetic" k2="-1" k3="1"/>
<feColorMatrix type="matrix" values="0 0 0 0 0.992157 0 0 0 0 0.976471 0 0 0 0 0.94902 0 0 0 0.25 0"/>
<feBlend mode="normal" in2="shape" result="effect2_innerShadow_1240_71249"/>
</filter>
<filter id="filter1_b_1240_71249" x="88" y="24" width="69" height="81" filterUnits="userSpaceOnUse" color-interpolation-filters="sRGB">
<feFlood flood-opacity="0" result="BackgroundImageFix"/>
<feGaussianBlur in="BackgroundImageFix" stdDeviation="3"/>
<feComposite in2="SourceAlpha" operator="in" result="effect1_backgroundBlur_1240_71249"/>
<feBlend mode="normal" in="SourceGraphic" in2="effect1_backgroundBlur_1240_71249" result="shape"/>
</filter>
<filter id="filter2_bdi_1240_71249" x="121.022" y="35.1211" width="71.4102" height="71.4102" filterUnits="userSpaceOnUse" color-interpolation-filters="sRGB">
<feFlood flood-opacity="0" result="BackgroundImageFix"/>
<feGaussianBlur in="BackgroundImageFix" stdDeviation="1.5"/>
<feComposite in2="SourceAlpha" operator="in" result="effect1_backgroundBlur_1240_71249"/>
<feColorMatrix in="SourceAlpha" type="matrix" values="0 0 0 0 0 0 0 0 0 0 0 0 0 0 0 0 0 0 127 0" result="hardAlpha"/>
<feOffset dx="3" dy="3"/>
<feGaussianBlur stdDeviation="7.5"/>
<feComposite in2="hardAlpha" operator="out"/>
<feColorMatrix type="matrix" values="0 0 0 0 0.870588 0 0 0 0 0.870588 0 0 0 0 0.870588 0 0 0 0.2 0"/>
<feBlend mode="normal" in2="effect1_backgroundBlur_1240_71249" result="effect2_dropShadow_1240_71249"/>
<feBlend mode="normal" in="SourceGraphic" in2="effect2_dropShadow_1240_71249" result="shape"/>
<feColorMatrix in="SourceAlpha" type="matrix" values="0 0 0 0 0 0 0 0 0 0 0 0 0 0 0 0 0 0 127 0" result="hardAlpha"/>
<feOffset dx="-3" dy="-3"/>
<feGaussianBlur stdDeviation="7.5"/>
<feComposite in2="hardAlpha" operator="arithmetic" k2="-1" k3="1"/>
<feColorMatrix type="matrix" values="0 0 0 0 0.870588 0 0 0 0 0.870588 0 0 0 0 0.870588 0 0 0 0.2 0"/>
<feBlend mode="normal" in2="shape" result="effect3_innerShadow_1240_71249"/>
</filter>
<filter id="filter3_bdi_1240_71249" x="86.5" y="25.5" width="84" height="51" filterUnits="userSpaceOnUse" color-interpolation-filters="sRGB">
<feFlood flood-opacity="0" result="BackgroundImageFix"/>
<feGaussianBlur in="BackgroundImageFix" stdDeviation="3"/>
<feComposite in2="SourceAlpha" operator="in" result="effect1_backgroundBlur_1240_71249"/>
<feColorMatrix in="SourceAlpha" type="matrix" values="0 0 0 0 0 0 0 0 0 0 0 0 0 0 0 0 0 0 127 0" result="hardAlpha"/>
<feOffset dx="6" dy="6"/>
<feGaussianBlur stdDeviation="12"/>
<feComposite in2="hardAlpha" operator="out"/>
<feColorMatrix type="matrix" values="0 0 0 0 0.981102 0 0 0 0 0.716495 0 0 0 0 0.30018 0 0 0 0.04 0"/>
<feBlend mode="normal" in2="effect1_backgroundBlur_1240_71249" result="effect2_dropShadow_1240_71249"/>
<feBlend mode="normal" in="SourceGraphic" in2="effect2_dropShadow_1240_71249" result="shape"/>
<feColorMatrix in="SourceAlpha" type="matrix" values="0 0 0 0 0 0 0 0 0 0 0 0 0 0 0 0 0 0 127 0" result="hardAlpha"/>
<feOffset dx="12" dy="12"/>
<feGaussianBlur stdDeviation="7.5"/>
<feComposite in2="hardAlpha" operator="arithmetic" k2="-1" k3="1"/>
<feColorMatrix type="matrix" values="0 0 0 0 1 0 0 0 0 0.980392 0 0 0 0 0.952941 0 0 0 0.2 0"/>
<feBlend mode="normal" in2="shape" result="effect3_innerShadow_1240_71249"/>
</filter>
<filter id="filter4_bdi_1240_71249" x="86.5" y="36" width="84" height="51" filterUnits="userSpaceOnUse" color-interpolation-filters="sRGB">
<feFlood flood-opacity="0" result="BackgroundImageFix"/>
<feGaussianBlur in="BackgroundImageFix" stdDeviation="3"/>
<feComposite in2="SourceAlpha" operator="in" result="effect1_backgroundBlur_1240_71249"/>
<feColorMatrix in="SourceAlpha" type="matrix" values="0 0 0 0 0 0 0 0 0 0 0 0 0 0 0 0 0 0 127 0" result="hardAlpha"/>
<feOffset dx="6" dy="6"/>
<feGaussianBlur stdDeviation="12"/>
<feComposite in2="hardAlpha" operator="out"/>
<feColorMatrix type="matrix" values="0 0 0 0 0.981102 0 0 0 0 0.716495 0 0 0 0 0.30018 0 0 0 0.04 0"/>
<feBlend mode="normal" in2="effect1_backgroundBlur_1240_71249" result="effect2_dropShadow_1240_71249"/>
<feBlend mode="normal" in="SourceGraphic" in2="effect2_dropShadow_1240_71249" result="shape"/>
<feColorMatrix in="SourceAlpha" type="matrix" values="0 0 0 0 0 0 0 0 0 0 0 0 0 0 0 0 0 0 127 0" result="hardAlpha"/>
<feOffset dx="12" dy="12"/>
<feGaussianBlur stdDeviation="7.5"/>
<feComposite in2="hardAlpha" operator="arithmetic" k2="-1" k3="1"/>
<feColorMatrix type="matrix" values="0 0 0 0 1 0 0 0 0 0.980392 0 0 0 0 0.952941 0 0 0 0.2 0"/>
<feBlend mode="normal" in2="shape" result="effect3_innerShadow_1240_71249"/>
</filter>
<filter id="filter5_bdi_1240_71249" x="86.5" y="46.5" width="72" height="51" filterUnits="userSpaceOnUse" color-interpolation-filters="sRGB">
<feFlood flood-opacity="0" result="BackgroundImageFix"/>
<feGaussianBlur in="BackgroundImageFix" stdDeviation="3"/>
<feComposite in2="SourceAlpha" operator="in" result="effect1_backgroundBlur_1240_71249"/>
<feColorMatrix in="SourceAlpha" type="matrix" values="0 0 0 0 0 0 0 0 0 0 0 0 0 0 0 0 0 0 127 0" result="hardAlpha"/>
<feOffset dx="6" dy="6"/>
<feGaussianBlur stdDeviation="12"/>
<feComposite in2="hardAlpha" operator="out"/>
<feColorMatrix type="matrix" values="0 0 0 0 0.981102 0 0 0 0 0.716495 0 0 0 0 0.30018 0 0 0 0.04 0"/>
<feBlend mode="normal" in2="effect1_backgroundBlur_1240_71249" result="effect2_dropShadow_1240_71249"/>
<feBlend mode="normal" in="SourceGraphic" in2="effect2_dropShadow_1240_71249" result="shape"/>
<feColorMatrix in="SourceAlpha" type="matrix" values="0 0 0 0 0 0 0 0 0 0 0 0 0 0 0 0 0 0 127 0" result="hardAlpha"/>
<feOffset dx="12" dy="12"/>
<feGaussianBlur stdDeviation="7.5"/>
<feComposite in2="hardAlpha" operator="arithmetic" k2="-1" k3="1"/>
<feColorMatrix type="matrix" values="0 0 0 0 1 0 0 0 0 0.980392 0 0 0 0 0.952941 0 0 0 0.2 0"/>
<feBlend mode="normal" in2="shape" result="effect3_innerShadow_1240_71249"/>
</filter>
<filter id="filter6_bdi_1240_71249" x="86.5" y="57" width="63" height="51" filterUnits="userSpaceOnUse" color-interpolation-filters="sRGB">
<feFlood flood-opacity="0" result="BackgroundImageFix"/>
<feGaussianBlur in="BackgroundImageFix" stdDeviation="3"/>
<feComposite in2="SourceAlpha" operator="in" result="effect1_backgroundBlur_1240_71249"/>
<feColorMatrix in="SourceAlpha" type="matrix" values="0 0 0 0 0 0 0 0 0 0 0 0 0 0 0 0 0 0 127 0" result="hardAlpha"/>
<feOffset dx="6" dy="6"/>
<feGaussianBlur stdDeviation="12"/>
<feComposite in2="hardAlpha" operator="out"/>
<feColorMatrix type="matrix" values="0 0 0 0 0.981102 0 0 0 0 0.716495 0 0 0 0 0.30018 0 0 0 0.04 0"/>
<feBlend mode="normal" in2="effect1_backgroundBlur_1240_71249" result="effect2_dropShadow_1240_71249"/>
<feBlend mode="normal" in="SourceGraphic" in2="effect2_dropShadow_1240_71249" result="shape"/>
<feColorMatrix in="SourceAlpha" type="matrix" values="0 0 0 0 0 0 0 0 0 0 0 0 0 0 0 0 0 0 127 0" result="hardAlpha"/>
<feOffset dx="12" dy="12"/>
<feGaussianBlur stdDeviation="7.5"/>
<feComposite in2="hardAlpha" operator="arithmetic" k2="-1" k3="1"/>
<feColorMatrix type="matrix" values="0 0 0 0 1 0 0 0 0 0.980392 0 0 0 0 0.952941 0 0 0 0.2 0"/>
<feBlend mode="normal" in2="shape" result="effect3_innerShadow_1240_71249"/>
</filter>
<linearGradient id="paint0_linear_1240_71249" x1="94.5" y1="16.5" x2="163.5" y2="109.5" gradientUnits="userSpaceOnUse">
<stop stop-color="#F4F3F2"/>
<stop offset="1" stop-color="#F4F3F2"/>
</linearGradient>
<linearGradient id="paint1_linear_1240_71249" x1="122.5" y1="30" x2="122.5" y2="99" gradientUnits="userSpaceOnUse">
<stop stop-color="#DADADA" stop-opacity="0.4"/>
<stop offset="1" stop-color="#DADADA" stop-opacity="0.8"/>
</linearGradient>
<linearGradient id="paint2_linear_1240_71249" x1="162.942" y1="51.687" x2="167.291" y2="78.9441" gradientUnits="userSpaceOnUse">
<stop stop-color="#DEDEDE"/>
<stop offset="0.5" stop-color="#DEDEDE"/>
<stop offset="1" stop-color="#DEDEDE"/>
</linearGradient>
<linearGradient id="paint3_linear_1240_71249" x1="112.854" y1="43.6869" x2="112.974" y2="46.5219" gradientUnits="userSpaceOnUse">
<stop stop-color="#FCFCFC"/>
<stop offset="0.5" stop-color="#FCFCFC"/>
<stop offset="1" stop-color="#FCFCFC"/>
</linearGradient>
<linearGradient id="paint4_linear_1240_71249" x1="112.854" y1="54.1869" x2="112.974" y2="57.0219" gradientUnits="userSpaceOnUse">
<stop stop-color="#FCFCFC"/>
<stop offset="0.5" stop-color="#FCFCFC"/>
<stop offset="1" stop-color="#FCFCFC"/>
</linearGradient>
<linearGradient id="paint5_linear_1240_71249" x1="110.069" y1="64.6869" x2="110.249" y2="67.5156" gradientUnits="userSpaceOnUse">
<stop stop-color="#FCFCFC"/>
<stop offset="0.5" stop-color="#FCFCFC"/>
<stop offset="1" stop-color="#FCFCFC"/>
</linearGradient>
<linearGradient id="paint6_linear_1240_71249" x1="107.981" y1="75.1869" x2="108.266" y2="77.998" gradientUnits="userSpaceOnUse">
<stop stop-color="#FCFCFC"/>
<stop offset="0.5" stop-color="#FCFCFC"/>
<stop offset="1" stop-color="#FCFCFC"/>
</linearGradient>
</defs>
</svg>
