<svg width="206" height="152" viewBox="0 0 206 152" fill="none" xmlns="http://www.w3.org/2000/svg">
<rect width="206" height="152" fill="#FCFCFC"/>
<circle cx="103" cy="40" r="40" fill="url(#paint0_linear_1240_71246)"/>
<g filter="url(#filter0_di_1240_71246)">
<path fill-rule="evenodd" clip-rule="evenodd" d="M93.126 17C93.5701 15.2748 95.1362 14 97 14C98.8638 14 100.43 15.2748 100.874 17H104C106.209 17 108 18.7909 108 21V23C108 24.1046 107.105 25 106 25H88C86.8954 25 86 24.1046 86 23V21C86 18.7909 87.7909 17 90 17H93.126Z" fill="#DADADA"/>
</g>
<g filter="url(#filter1_b_1240_71246)">
<rect x="78" y="20" width="38" height="46" rx="4" fill="url(#paint1_linear_1240_71246)" fill-opacity="0.5"/>
</g>
<g filter="url(#filter2_bdi_1240_71246)">
<path fill-rule="evenodd" clip-rule="evenodd" d="M124.128 31.7071C123.737 31.3166 123.104 31.3166 122.714 31.7071L118.253 36.1684L126.866 44.7821L125.143 46.505L116.53 37.8912L105.16 49.2606C104.822 49.5987 104.616 50.0468 104.58 50.5236L104.017 57.9452C103.971 58.5559 104.479 59.0644 105.09 59.018L112.512 58.455C112.988 58.4188 113.436 58.213 113.775 57.8749L131.328 40.3214C131.719 39.9308 131.719 39.2977 131.328 38.9072L124.128 31.7071Z" fill="url(#paint2_linear_1240_71246)" fill-opacity="0.8" shape-rendering="crispEdges"/>
</g>
<g filter="url(#filter3_bdi_1240_71246)">
<rect x="85" y="29" width="24" height="2" rx="1" fill="url(#paint3_linear_1240_71246)" fill-opacity="0.5" shape-rendering="crispEdges"/>
</g>
<g filter="url(#filter4_bdi_1240_71246)">
<rect x="85" y="43" width="16" height="2" rx="1" fill="url(#paint4_linear_1240_71246)" fill-opacity="0.5" shape-rendering="crispEdges"/>
</g>
<g filter="url(#filter5_bdi_1240_71246)">
<rect x="85" y="50" width="10" height="2" rx="1" fill="url(#paint5_linear_1240_71246)" fill-opacity="0.5" shape-rendering="crispEdges"/>
</g>
<g filter="url(#filter6_bdi_1240_71246)">
<rect x="85" y="36" width="24" height="2" rx="1" fill="url(#paint6_linear_1240_71246)" fill-opacity="0.5" shape-rendering="crispEdges"/>
</g>
<path d="M54.8408 115.736V116.639H43.7529V115.736H54.8408ZM53.542 113.699V114.574H45.1611V110.445H53.46V111.348H46.2139V113.699H53.542ZM49.29 117.705C51.9014 117.705 53.46 118.498 53.4736 119.893C53.46 121.301 51.9014 122.08 49.29 122.08C46.665 122.08 45.0928 121.301 45.0928 119.893C45.0928 118.498 46.665 117.705 49.29 117.705ZM49.29 118.539C47.335 118.553 46.1729 119.045 46.1865 119.893C46.1729 120.754 47.335 121.232 49.29 121.232C51.2178 121.232 52.3936 120.754 52.3936 119.893C52.3936 119.045 51.2178 118.553 49.29 118.539ZM66.9678 116.652V117.541H55.8389V116.652H60.8701V115.367H57.2881V112.4H64.4521V111.143H57.2471V110.268H65.5322V113.207H58.3545V114.506H65.792V115.367H61.9229V116.652H66.9678ZM65.6006 118.471V121.998H64.5205V119.346H57.083V118.471H65.6006ZM75.0205 113.945V114.82H72.5596V116.516C73.6943 116.468 74.8291 116.386 75.8818 116.27L75.9639 117.062C73.3525 117.418 70.4541 117.5 68.1709 117.5L68.0068 116.625C69.0732 116.618 70.2695 116.604 71.4932 116.557V114.82H69.1143V110.746H74.9248V111.635H70.1943V113.945H75.0205ZM77.9736 109.967V119.059H76.8936V109.967H77.9736ZM78.3701 120.945V121.848H70.085V118.43H71.1514V120.945H78.3701ZM88.7744 111.02V111.908H85.1787V115.545C86.7988 115.552 87.9883 115.49 89.376 115.203L89.4717 116.092C87.9541 116.379 86.71 116.434 84.9053 116.434H84.126V111.02H88.7744ZM93.8877 109.953V117.992H92.8623V114.041H91.1533V116.939H90.1553V110.186H91.1533V113.139H92.8623V109.953H93.8877ZM90.3604 117.91C90.3604 119.537 92.4111 120.891 94.5439 121.219L94.0791 122.053C92.2744 121.725 90.5586 120.768 89.8271 119.387C89.0889 120.768 87.3662 121.725 85.5752 122.053L85.1104 121.219C87.2295 120.891 89.2803 119.537 89.2939 117.91V117.445H90.3604V117.91ZM105.331 110.486V111.266C105.331 112.093 105.331 113.132 105.058 114.506H106.794V115.367H95.665V114.506H103.978C104.251 113.152 104.265 112.154 104.265 111.361H97.0732V110.486H105.331ZM105.372 116.598V119.66H98.085V121.096H105.687V121.971H97.0049V118.812H104.306V117.459H96.9912V116.598H105.372ZM117.786 109.953V122.135H116.706V109.953H117.786ZM111.319 110.896C113.124 110.91 114.423 112.551 114.423 115.135C114.423 117.719 113.124 119.359 111.319 119.359C109.501 119.359 108.216 117.719 108.216 115.135C108.216 112.551 109.501 110.91 111.319 110.896ZM111.319 111.854C110.103 111.867 109.255 113.152 109.255 115.135C109.255 117.117 110.103 118.402 111.319 118.402C112.536 118.402 113.384 117.117 113.384 115.135C113.384 113.152 112.536 111.867 111.319 111.854ZM125.798 117.09V118.607H128.013V117.09H129.011V121.943H124.786V117.09H125.798ZM125.798 121.096H128.013V119.428H125.798V121.096ZM132.483 118.047C132.47 119.332 133.235 120.672 134.726 121.219L134.165 122.039C133.044 121.588 132.306 120.733 131.937 119.715C131.547 120.713 130.809 121.574 129.735 122.039L129.175 121.219C130.638 120.617 131.417 119.277 131.417 118.047V117.008H132.483V118.047ZM126.728 110.5C128.354 110.5 129.599 111.423 129.831 112.824H132.374V109.953H133.454V116.393H132.374V113.713H129.845C129.626 115.148 128.375 116.092 126.728 116.092C124.882 116.092 123.569 114.957 123.569 113.289C123.569 111.635 124.882 110.5 126.728 110.5ZM126.728 111.402C125.483 111.402 124.595 112.182 124.595 113.289C124.595 114.41 125.483 115.203 126.728 115.203C127.958 115.203 128.833 114.41 128.833 113.289C128.833 112.182 127.958 111.402 126.728 111.402ZM138.745 110.896C140.399 110.91 141.589 112.325 141.767 114.602H144.487V109.953H145.554V122.135H144.487V115.49H141.78C141.65 117.869 140.44 119.359 138.745 119.359C136.954 119.359 135.696 117.719 135.696 115.135C135.696 112.551 136.954 110.91 138.745 110.896ZM138.745 111.854C137.542 111.867 136.722 113.152 136.722 115.135C136.722 117.117 137.542 118.402 138.745 118.402C139.935 118.402 140.769 117.117 140.769 115.135C140.769 113.152 139.935 111.867 138.745 111.854ZM158.706 119.646V120.549H147.577V119.646H150.339V116.365C149.3 115.825 148.671 114.95 148.671 113.85C148.671 111.963 150.517 110.732 153.114 110.719C155.712 110.732 157.558 111.963 157.558 113.85C157.558 114.93 156.949 115.798 155.944 116.338V119.646H158.706ZM153.114 111.607C151.118 111.594 149.71 112.496 149.71 113.85C149.71 115.203 151.118 116.119 153.114 116.119C155.097 116.119 156.519 115.203 156.519 113.85C156.519 112.496 155.097 111.594 153.114 111.607ZM151.392 119.646H154.864V116.748C154.338 116.892 153.75 116.967 153.114 116.967C152.492 116.967 151.911 116.898 151.392 116.762V119.646ZM160.962 121.082C160.483 121.082 160.073 120.686 160.087 120.193C160.073 119.715 160.483 119.318 160.962 119.318C161.44 119.318 161.837 119.715 161.837 120.193C161.837 120.686 161.44 121.082 160.962 121.082ZM6.63379 135.02V135.908H3.03809V139.545C4.6582 139.552 5.84766 139.49 7.23535 139.203L7.33105 140.092C5.81348 140.379 4.56934 140.434 2.76465 140.434H1.98535V135.02H6.63379ZM11.7471 133.953V141.992H10.7217V138.041H9.0127V140.939H8.01465V134.186H9.0127V137.139H10.7217V133.953H11.7471ZM8.21973 141.91C8.21973 143.537 10.2705 144.891 12.4033 145.219L11.9385 146.053C10.1338 145.725 8.41797 144.768 7.68652 143.387C6.94824 144.768 5.22559 145.725 3.43457 146.053L2.96973 145.219C5.08887 144.891 7.13965 143.537 7.15332 141.91V141.445H8.21973V141.91ZM23.1904 134.486V135.266C23.1904 136.093 23.1904 137.132 22.917 138.506H24.6533V139.367H13.5244V138.506H21.8369C22.1104 137.152 22.124 136.154 22.124 135.361H14.9326V134.486H23.1904ZM23.2314 140.598V143.66H15.9443V145.096H23.5459V145.971H14.8643V142.812H22.165V141.459H14.8506V140.598H23.2314ZM31.1611 134.172C33.8682 134.172 35.4541 134.91 35.4541 136.264C35.4541 137.645 33.8682 138.383 31.1611 138.396C28.4541 138.383 26.8545 137.645 26.8545 136.264C26.8545 134.91 28.4541 134.172 31.1611 134.172ZM31.1611 134.979C29.1377 134.979 27.9619 135.471 27.9756 136.264C27.9619 137.111 29.1377 137.576 31.1611 137.576C33.1709 137.576 34.3604 137.111 34.3604 136.264C34.3604 135.471 33.1709 134.979 31.1611 134.979ZM36.6982 139.217V140.092H25.624V139.217H36.6982ZM35.2764 141.145V143.865H28.0576V145.123H35.6455V145.971H26.9912V143.072H34.2236V141.965H26.9639V141.145H35.2764ZM52.3252 139.736V140.639H41.2373V139.736H52.3252ZM51.0264 137.699V138.574H42.6455V134.445H50.9443V135.348H43.6982V137.699H51.0264ZM46.7744 141.705C49.3857 141.705 50.9443 142.498 50.958 143.893C50.9443 145.301 49.3857 146.08 46.7744 146.08C44.1494 146.08 42.5771 145.301 42.5771 143.893C42.5771 142.498 44.1494 141.705 46.7744 141.705ZM46.7744 142.539C44.8193 142.553 43.6572 143.045 43.6709 143.893C43.6572 144.754 44.8193 145.232 46.7744 145.232C48.7021 145.232 49.8779 144.754 49.8779 143.893C49.8779 143.045 48.7021 142.553 46.7744 142.539ZM64.4521 140.652V141.541H53.3232V140.652H58.3545V139.367H54.7725V136.4H61.9365V135.143H54.7314V134.268H63.0166V137.207H55.8389V138.506H63.2764V139.367H59.4072V140.652H64.4521ZM63.085 142.471V145.998H62.0049V143.346H54.5674V142.471H63.085ZM74.8428 133.953V138.971H76.8799V139.859H74.8428V146.107H73.7764V133.953H74.8428ZM72.6006 135.908V136.797H65.3682V135.908H68.499V134.104H69.5654V135.908H72.6006ZM69.0459 137.809C70.7686 137.809 72.0127 138.957 72.0264 140.598C72.0127 142.238 70.7686 143.387 69.0459 143.387C67.3096 143.387 66.0518 142.238 66.0654 140.598C66.0518 138.957 67.3096 137.809 69.0459 137.809ZM69.0459 138.711C67.9111 138.711 67.0771 139.504 67.0908 140.598C67.0771 141.705 67.9111 142.484 69.0459 142.471C70.167 142.484 70.9873 141.705 71.001 140.598C70.9873 139.504 70.167 138.711 69.0459 138.711ZM87.2842 135.184V136.4C87.2705 137.891 87.2705 139.559 86.833 142.006L85.7393 141.883C86.2041 139.559 86.2041 137.85 86.2041 136.4V136.072H78.7119V135.184H87.2842ZM88.6104 143.496V144.385H77.5361V143.496H81.8838V139.148H82.9365V143.496H88.6104ZM97.1279 134.842C99.042 134.842 100.396 136.004 100.396 137.699C100.396 139.395 99.042 140.557 97.1279 140.557C95.2139 140.557 93.833 139.395 93.8467 137.699C93.833 136.004 95.2139 134.842 97.1279 134.842ZM97.1279 135.785C95.8291 135.785 94.8857 136.564 94.8994 137.699C94.8857 138.834 95.8291 139.613 97.1279 139.613C98.4131 139.613 99.3428 138.834 99.3428 137.699C99.3428 136.564 98.4131 135.785 97.1279 135.785ZM103.116 133.953V146.135H102.05V133.953H103.116ZM93.2178 142.539C95.46 142.539 98.5498 142.525 101.243 142.129L101.325 142.922C98.5498 143.441 95.5557 143.455 93.3682 143.455L93.2178 142.539ZM115.325 133.967V143.031H114.245V140.092H110.978V139.203H114.245V137.357H111.142C110.287 139.278 108.421 140.741 105.933 141.541L105.454 140.68C108.298 139.743 110.253 137.993 110.485 135.799H106.056V134.91H111.661C111.661 135.457 111.586 135.983 111.456 136.482H114.245V133.967H115.325ZM115.64 144.945V145.848H107.587V142.129H108.681V144.945H115.64ZM122.886 134.172C125.593 134.172 127.179 134.91 127.179 136.264C127.179 137.645 125.593 138.383 122.886 138.396C120.179 138.383 118.579 137.645 118.579 136.264C118.579 134.91 120.179 134.172 122.886 134.172ZM122.886 134.979C120.862 134.979 119.687 135.471 119.7 136.264C119.687 137.111 120.862 137.576 122.886 137.576C124.896 137.576 126.085 137.111 126.085 136.264C126.085 135.471 124.896 134.979 122.886 134.979ZM128.423 139.217V140.092H117.349V139.217H128.423ZM127.001 141.145V143.865H119.782V145.123H127.37V145.971H118.716V143.072H125.948V141.965H118.688V141.145H127.001ZM138.458 141.637C141.069 141.637 142.724 142.457 142.724 143.865C142.724 145.26 141.069 146.08 138.458 146.08C135.86 146.08 134.206 145.26 134.206 143.865C134.206 142.457 135.86 141.637 138.458 141.637ZM138.458 142.457C136.517 142.471 135.259 143.004 135.272 143.865C135.259 144.713 136.517 145.232 138.458 145.232C140.399 145.232 141.644 144.713 141.657 143.865C141.644 143.004 140.399 142.471 138.458 142.457ZM142.628 134.582V135.607C142.628 136.592 142.628 137.576 142.286 138.834L141.233 138.711C141.562 137.453 141.562 136.564 141.562 135.607V135.457H134.288V134.582H142.628ZM144.036 139.627V140.502H132.976V139.627H137.556V137.275H138.608V139.627H144.036ZM156.177 140.885V141.773H153.237V146.107H152.157V141.773H149.04V146.107H147.933V141.773H145.048V140.885H156.177ZM150.585 134.445C153.142 134.445 154.864 135.471 154.864 137.098C154.864 138.711 153.142 139.736 150.585 139.723C148.028 139.736 146.306 138.711 146.306 137.098C146.306 135.471 148.028 134.445 150.585 134.445ZM150.585 135.32C148.685 135.32 147.399 136.018 147.413 137.098C147.399 138.178 148.685 138.861 150.585 138.861C152.472 138.861 153.771 138.178 153.771 137.098C153.771 136.018 152.472 135.32 150.585 135.32ZM163.231 136.059V136.934H157.134V136.059H159.663V134.322H160.729V136.059H163.231ZM160.183 137.754C161.714 137.754 162.808 138.902 162.821 140.516C162.808 142.143 161.714 143.305 160.183 143.305C158.665 143.305 157.571 142.143 157.571 140.516C157.571 138.902 158.665 137.754 160.183 137.754ZM160.183 138.656C159.226 138.67 158.528 139.449 158.528 140.516C158.528 141.596 159.226 142.375 160.183 142.361C161.153 142.375 161.864 141.596 161.864 140.516C161.864 139.449 161.153 138.67 160.183 138.656ZM167.511 133.953V146.107H166.485V139.969H164.872V145.506H163.86V134.254H164.872V139.08H166.485V133.953H167.511ZM180.39 143.66V144.549H169.261V143.66H174.265V141.035H170.573V134.814H171.653V137.016H177.97V134.814H179.022V141.035H175.317V143.66H180.39ZM171.653 140.16H177.97V137.891H171.653V140.16ZM184.97 137.412C184.97 139.34 185.913 141.432 187.526 142.389L186.911 143.223C185.742 142.512 184.901 141.213 184.478 139.736C184.026 141.35 183.124 142.737 181.907 143.482L181.224 142.676C182.905 141.691 183.931 139.531 183.931 137.453V135.102H184.97V137.412ZM191.778 133.953V146.107H190.739V133.953H191.778ZM189.263 134.213V145.492H188.251V139.23H186.187V138.314H188.251V134.213H189.263ZM204.589 143.646V144.549H193.46V143.646H196.222V140.365C195.183 139.825 194.554 138.95 194.554 137.85C194.554 135.963 196.399 134.732 198.997 134.719C201.595 134.732 203.44 135.963 203.44 137.85C203.44 138.93 202.832 139.798 201.827 140.338V143.646H204.589ZM198.997 135.607C197.001 135.594 195.593 136.496 195.593 137.85C195.593 139.203 197.001 140.119 198.997 140.119C200.979 140.119 202.401 139.203 202.401 137.85C202.401 136.496 200.979 135.594 198.997 135.607ZM197.274 143.646H200.747V140.748C200.221 140.892 199.633 140.967 198.997 140.967C198.375 140.967 197.794 140.898 197.274 140.762V143.646Z" fill="#999999"/>
<defs>
<filter id="filter0_di_1240_71246" x="80" y="12" width="34" height="25" filterUnits="userSpaceOnUse" color-interpolation-filters="sRGB">
<feFlood flood-opacity="0" result="BackgroundImageFix"/>
<feColorMatrix in="SourceAlpha" type="matrix" values="0 0 0 0 0 0 0 0 0 0 0 0 0 0 0 0 0 0 127 0" result="hardAlpha"/>
<feOffset dy="6"/>
<feGaussianBlur stdDeviation="3"/>
<feComposite in2="hardAlpha" operator="out"/>
<feColorMatrix type="matrix" values="0 0 0 0 0.956863 0 0 0 0 0.956863 0 0 0 0 0.956863 0 0 0 0.2 0"/>
<feBlend mode="normal" in2="BackgroundImageFix" result="effect1_dropShadow_1240_71246"/>
<feBlend mode="normal" in="SourceGraphic" in2="effect1_dropShadow_1240_71246" result="shape"/>
<feColorMatrix in="SourceAlpha" type="matrix" values="0 0 0 0 0 0 0 0 0 0 0 0 0 0 0 0 0 0 127 0" result="hardAlpha"/>
<feOffset dx="-2" dy="-2"/>
<feGaussianBlur stdDeviation="2"/>
<feComposite in2="hardAlpha" operator="arithmetic" k2="-1" k3="1"/>
<feColorMatrix type="matrix" values="0 0 0 0 0.992157 0 0 0 0 0.976471 0 0 0 0 0.94902 0 0 0 0.25 0"/>
<feBlend mode="normal" in2="shape" result="effect2_innerShadow_1240_71246"/>
</filter>
<filter id="filter1_b_1240_71246" x="70" y="12" width="54" height="62" filterUnits="userSpaceOnUse" color-interpolation-filters="sRGB">
<feFlood flood-opacity="0" result="BackgroundImageFix"/>
<feGaussianBlur in="BackgroundImageFix" stdDeviation="4"/>
<feComposite in2="SourceAlpha" operator="in" result="effect1_backgroundBlur_1240_71246"/>
<feBlend mode="normal" in="SourceGraphic" in2="effect1_backgroundBlur_1240_71246" result="shape"/>
</filter>
<filter id="filter2_bdi_1240_71246" x="96.0142" y="23.4141" width="47.6069" height="47.6055" filterUnits="userSpaceOnUse" color-interpolation-filters="sRGB">
<feFlood flood-opacity="0" result="BackgroundImageFix"/>
<feGaussianBlur in="BackgroundImageFix" stdDeviation="1"/>
<feComposite in2="SourceAlpha" operator="in" result="effect1_backgroundBlur_1240_71246"/>
<feColorMatrix in="SourceAlpha" type="matrix" values="0 0 0 0 0 0 0 0 0 0 0 0 0 0 0 0 0 0 127 0" result="hardAlpha"/>
<feOffset dx="2" dy="2"/>
<feGaussianBlur stdDeviation="5"/>
<feComposite in2="hardAlpha" operator="out"/>
<feColorMatrix type="matrix" values="0 0 0 0 0.870588 0 0 0 0 0.870588 0 0 0 0 0.870588 0 0 0 0.2 0"/>
<feBlend mode="normal" in2="effect1_backgroundBlur_1240_71246" result="effect2_dropShadow_1240_71246"/>
<feBlend mode="normal" in="SourceGraphic" in2="effect2_dropShadow_1240_71246" result="shape"/>
<feColorMatrix in="SourceAlpha" type="matrix" values="0 0 0 0 0 0 0 0 0 0 0 0 0 0 0 0 0 0 127 0" result="hardAlpha"/>
<feOffset dx="-2" dy="-2"/>
<feGaussianBlur stdDeviation="5"/>
<feComposite in2="hardAlpha" operator="arithmetic" k2="-1" k3="1"/>
<feColorMatrix type="matrix" values="0 0 0 0 0.870588 0 0 0 0 0.870588 0 0 0 0 0.870588 0 0 0 0.2 0"/>
<feBlend mode="normal" in2="shape" result="effect3_innerShadow_1240_71246"/>
</filter>
<filter id="filter3_bdi_1240_71246" x="73" y="17" width="56" height="34" filterUnits="userSpaceOnUse" color-interpolation-filters="sRGB">
<feFlood flood-opacity="0" result="BackgroundImageFix"/>
<feGaussianBlur in="BackgroundImageFix" stdDeviation="2"/>
<feComposite in2="SourceAlpha" operator="in" result="effect1_backgroundBlur_1240_71246"/>
<feColorMatrix in="SourceAlpha" type="matrix" values="0 0 0 0 0 0 0 0 0 0 0 0 0 0 0 0 0 0 127 0" result="hardAlpha"/>
<feOffset dx="4" dy="4"/>
<feGaussianBlur stdDeviation="8"/>
<feComposite in2="hardAlpha" operator="out"/>
<feColorMatrix type="matrix" values="0 0 0 0 0.981102 0 0 0 0 0.716495 0 0 0 0 0.30018 0 0 0 0.04 0"/>
<feBlend mode="normal" in2="effect1_backgroundBlur_1240_71246" result="effect2_dropShadow_1240_71246"/>
<feBlend mode="normal" in="SourceGraphic" in2="effect2_dropShadow_1240_71246" result="shape"/>
<feColorMatrix in="SourceAlpha" type="matrix" values="0 0 0 0 0 0 0 0 0 0 0 0 0 0 0 0 0 0 127 0" result="hardAlpha"/>
<feOffset dx="8" dy="8"/>
<feGaussianBlur stdDeviation="5"/>
<feComposite in2="hardAlpha" operator="arithmetic" k2="-1" k3="1"/>
<feColorMatrix type="matrix" values="0 0 0 0 1 0 0 0 0 0.980392 0 0 0 0 0.952941 0 0 0 0.2 0"/>
<feBlend mode="normal" in2="shape" result="effect3_innerShadow_1240_71246"/>
</filter>
<filter id="filter4_bdi_1240_71246" x="73" y="31" width="48" height="34" filterUnits="userSpaceOnUse" color-interpolation-filters="sRGB">
<feFlood flood-opacity="0" result="BackgroundImageFix"/>
<feGaussianBlur in="BackgroundImageFix" stdDeviation="2"/>
<feComposite in2="SourceAlpha" operator="in" result="effect1_backgroundBlur_1240_71246"/>
<feColorMatrix in="SourceAlpha" type="matrix" values="0 0 0 0 0 0 0 0 0 0 0 0 0 0 0 0 0 0 127 0" result="hardAlpha"/>
<feOffset dx="4" dy="4"/>
<feGaussianBlur stdDeviation="8"/>
<feComposite in2="hardAlpha" operator="out"/>
<feColorMatrix type="matrix" values="0 0 0 0 0.981102 0 0 0 0 0.716495 0 0 0 0 0.30018 0 0 0 0.04 0"/>
<feBlend mode="normal" in2="effect1_backgroundBlur_1240_71246" result="effect2_dropShadow_1240_71246"/>
<feBlend mode="normal" in="SourceGraphic" in2="effect2_dropShadow_1240_71246" result="shape"/>
<feColorMatrix in="SourceAlpha" type="matrix" values="0 0 0 0 0 0 0 0 0 0 0 0 0 0 0 0 0 0 127 0" result="hardAlpha"/>
<feOffset dx="8" dy="8"/>
<feGaussianBlur stdDeviation="5"/>
<feComposite in2="hardAlpha" operator="arithmetic" k2="-1" k3="1"/>
<feColorMatrix type="matrix" values="0 0 0 0 1 0 0 0 0 0.980392 0 0 0 0 0.952941 0 0 0 0.2 0"/>
<feBlend mode="normal" in2="shape" result="effect3_innerShadow_1240_71246"/>
</filter>
<filter id="filter5_bdi_1240_71246" x="73" y="38" width="42" height="34" filterUnits="userSpaceOnUse" color-interpolation-filters="sRGB">
<feFlood flood-opacity="0" result="BackgroundImageFix"/>
<feGaussianBlur in="BackgroundImageFix" stdDeviation="2"/>
<feComposite in2="SourceAlpha" operator="in" result="effect1_backgroundBlur_1240_71246"/>
<feColorMatrix in="SourceAlpha" type="matrix" values="0 0 0 0 0 0 0 0 0 0 0 0 0 0 0 0 0 0 127 0" result="hardAlpha"/>
<feOffset dx="4" dy="4"/>
<feGaussianBlur stdDeviation="8"/>
<feComposite in2="hardAlpha" operator="out"/>
<feColorMatrix type="matrix" values="0 0 0 0 0.981102 0 0 0 0 0.716495 0 0 0 0 0.30018 0 0 0 0.04 0"/>
<feBlend mode="normal" in2="effect1_backgroundBlur_1240_71246" result="effect2_dropShadow_1240_71246"/>
<feBlend mode="normal" in="SourceGraphic" in2="effect2_dropShadow_1240_71246" result="shape"/>
<feColorMatrix in="SourceAlpha" type="matrix" values="0 0 0 0 0 0 0 0 0 0 0 0 0 0 0 0 0 0 127 0" result="hardAlpha"/>
<feOffset dx="8" dy="8"/>
<feGaussianBlur stdDeviation="5"/>
<feComposite in2="hardAlpha" operator="arithmetic" k2="-1" k3="1"/>
<feColorMatrix type="matrix" values="0 0 0 0 1 0 0 0 0 0.980392 0 0 0 0 0.952941 0 0 0 0.2 0"/>
<feBlend mode="normal" in2="shape" result="effect3_innerShadow_1240_71246"/>
</filter>
<filter id="filter6_bdi_1240_71246" x="73" y="24" width="56" height="34" filterUnits="userSpaceOnUse" color-interpolation-filters="sRGB">
<feFlood flood-opacity="0" result="BackgroundImageFix"/>
<feGaussianBlur in="BackgroundImageFix" stdDeviation="2"/>
<feComposite in2="SourceAlpha" operator="in" result="effect1_backgroundBlur_1240_71246"/>
<feColorMatrix in="SourceAlpha" type="matrix" values="0 0 0 0 0 0 0 0 0 0 0 0 0 0 0 0 0 0 127 0" result="hardAlpha"/>
<feOffset dx="4" dy="4"/>
<feGaussianBlur stdDeviation="8"/>
<feComposite in2="hardAlpha" operator="out"/>
<feColorMatrix type="matrix" values="0 0 0 0 0.981102 0 0 0 0 0.716495 0 0 0 0 0.30018 0 0 0 0.04 0"/>
<feBlend mode="normal" in2="effect1_backgroundBlur_1240_71246" result="effect2_dropShadow_1240_71246"/>
<feBlend mode="normal" in="SourceGraphic" in2="effect2_dropShadow_1240_71246" result="shape"/>
<feColorMatrix in="SourceAlpha" type="matrix" values="0 0 0 0 0 0 0 0 0 0 0 0 0 0 0 0 0 0 127 0" result="hardAlpha"/>
<feOffset dx="8" dy="8"/>
<feGaussianBlur stdDeviation="5"/>
<feComposite in2="hardAlpha" operator="arithmetic" k2="-1" k3="1"/>
<feColorMatrix type="matrix" values="0 0 0 0 1 0 0 0 0 0.980392 0 0 0 0 0.952941 0 0 0 0.2 0"/>
<feBlend mode="normal" in2="shape" result="effect3_innerShadow_1240_71246"/>
</filter>
<linearGradient id="paint0_linear_1240_71246" x1="78" y1="11" x2="124" y2="73" gradientUnits="userSpaceOnUse">
<stop stop-color="#F4F3F2"/>
<stop offset="1" stop-color="#F4F3F2"/>
</linearGradient>
<linearGradient id="paint1_linear_1240_71246" x1="97" y1="20" x2="97" y2="66" gradientUnits="userSpaceOnUse">
<stop offset="0.035" stop-color="#DADADA" stop-opacity="0.4"/>
<stop offset="1" stop-color="#DADADA" stop-opacity="0.8"/>
</linearGradient>
<linearGradient id="paint2_linear_1240_71246" x1="123.961" y1="34.458" x2="126.861" y2="52.6294" gradientUnits="userSpaceOnUse">
<stop stop-color="#DEDEDE"/>
<stop offset="0.5" stop-color="#DEDEDE"/>
<stop offset="1" stop-color="#DEDEDE"/>
</linearGradient>
<linearGradient id="paint3_linear_1240_71246" x1="90.5692" y1="29.1246" x2="90.6491" y2="31.0146" gradientUnits="userSpaceOnUse">
<stop stop-color="#FCFCFC"/>
<stop offset="0.5" stop-color="#FCFCFC"/>
<stop offset="1" stop-color="#FCFCFC"/>
</linearGradient>
<linearGradient id="paint4_linear_1240_71246" x1="88.7128" y1="43.1246" x2="88.8324" y2="45.0104" gradientUnits="userSpaceOnUse">
<stop stop-color="#FCFCFC"/>
<stop offset="0.5" stop-color="#FCFCFC"/>
<stop offset="1" stop-color="#FCFCFC"/>
</linearGradient>
<linearGradient id="paint5_linear_1240_71246" x1="87.3205" y1="50.1246" x2="87.5107" y2="51.9987" gradientUnits="userSpaceOnUse">
<stop stop-color="#FCFCFC"/>
<stop offset="0.5" stop-color="#FCFCFC"/>
<stop offset="1" stop-color="#FCFCFC"/>
</linearGradient>
<linearGradient id="paint6_linear_1240_71246" x1="90.5692" y1="36.1246" x2="90.6491" y2="38.0146" gradientUnits="userSpaceOnUse">
<stop stop-color="#FCFCFC"/>
<stop offset="0.5" stop-color="#FCFCFC"/>
<stop offset="1" stop-color="#FCFCFC"/>
</linearGradient>
</defs>
</svg>
