<?xml version="1.0" encoding="UTF-8"?>
<svg version="1.1" xmlns="http://www.w3.org/2000/svg" width="752" height="218">
<path d="M0 0 C2.3906267 2.14984415 3.82696101 3.8597208 4.31835938 7.09790039 C4.39338746 9.51476788 4.34915216 11.89661958 4.25 14.3125 C4.23195313 15.14845703 4.21390625 15.98441406 4.1953125 16.84570312 C4.14841126 18.89763228 4.07667411 20.94896756 4 23 C5.31355469 22.86980469 6.62710938 22.73960938 7.98046875 22.60546875 C9.71603301 22.46474732 11.45171737 22.32550168 13.1875 22.1875 C14.05181641 22.09791016 14.91613281 22.00832031 15.80664062 21.91601562 C22.28381459 21.44449721 22.28381459 21.44449721 26.046875 24.36328125 C29.07946027 28.45727136 29.07946027 28.45727136 29 31 C26.33673446 35.47428611 23.91235023 36.66505858 19 38 C16.71547193 38.27580863 14.42181617 38.4843786 12.125 38.625 C10.97257813 38.69976562 9.82015625 38.77453125 8.6328125 38.8515625 C7.76398438 38.90054688 6.89515625 38.94953125 6 39 C6.4241929 40.94045688 6.86485995 42.87731761 7.3125 44.8125 C7.55613281 45.89144531 7.79976562 46.97039062 8.05078125 48.08203125 C9.16274605 51.74170285 9.16274605 51.74170285 12 54 C15.31830063 53.84534746 15.31830063 53.84534746 18.9375 53.0625 C25.4429589 51.81066091 25.4429589 51.81066091 28.37890625 52.80859375 C30 54 30 54 31 56 C31.4556962 62.26582278 31.4556962 62.26582278 29.875 64.8125 C23.74605579 68.69416467 15.60606948 69.66931947 8.5 68.63671875 C1.20679828 66.62862436 -2.13731704 62.21152234 -5.8125 55.875 C-7.88341993 50.57588134 -7.75505779 44.61677826 -8 39 C-9.80597656 39.01740234 -9.80597656 39.01740234 -11.6484375 39.03515625 C-13.22395679 39.04453434 -14.79947775 39.05363452 -16.375 39.0625 C-17.1690625 39.07087891 -17.963125 39.07925781 -18.78125 39.08789062 C-24.7734375 39.11328125 -24.7734375 39.11328125 -27 38 C-27.09796875 39.0621875 -27.1959375 40.124375 -27.296875 41.21875 C-28.34488361 51.50309439 -29.84614571 58.99654856 -37 67 C-43.69326642 71.66870604 -49.74069029 74.78747695 -58 73.6875 C-64.83583289 72.08638866 -69.47771206 69.34026616 -73.8984375 63.79296875 C-75.94795105 60.4570584 -76.97362154 56.75504313 -78 53 C-78.20753906 53.56847656 -78.41507812 54.13695312 -78.62890625 54.72265625 C-81.89981878 62.92046631 -86.33775138 67.85715904 -94.125 72.0625 C-100.66383157 74.80429972 -106.32728441 73.99549411 -113 72 C-119.55465939 68.7226703 -124.09865499 63.39153504 -126.4296875 56.3984375 C-128.7254439 46.74368113 -128.71707632 38.46448055 -123.7421875 29.8125 C-120.31590483 24.71988314 -116.70800855 22.12935475 -111 20 C-109.865625 19.566875 -108.73125 19.13375 -107.5625 18.6875 C-99.11234601 17.05676853 -92.14139484 19.33495574 -85 24 C-81.55682406 27.130907 -79.35592113 31.0264806 -77 35 C-76.63648438 34.32453125 -76.27296875 33.6490625 -75.8984375 32.953125 C-71.73822182 25.57140897 -68.19959354 21.94595081 -60.0625 19.25 C-51.58058374 16.99403713 -46.56125894 18.13169072 -38.82421875 22.19921875 C-34.96118278 24.6623717 -32.66525463 27.29825745 -30 31 C-29.773125 30.21625 -29.54625 29.4325 -29.3125 28.625 C-28 26 -28 26 -25.84375 24.84375 C-22.49734484 23.85086056 -19.67254785 23.80459499 -16.1875 23.875 C-15.02605469 23.89304687 -13.86460937 23.91109375 -12.66796875 23.9296875 C-11.78753906 23.95289062 -10.90710938 23.97609375 -10 24 C-10.0314209 23.12263184 -10.0314209 23.12263184 -10.06347656 22.22753906 C-10.14680115 19.56853535 -10.19870897 16.90980645 -10.25 14.25 C-10.28351563 13.32960938 -10.31703125 12.40921875 -10.3515625 11.4609375 C-10.45038912 4.64190073 -10.45038912 4.64190073 -8.171875 1.39453125 C-5.17287526 -0.53108549 -3.4934542 -0.65502266 0 0 Z M-109 35 C-112.07531727 38.15843396 -113.79817869 40.55993124 -114 45 C-113.58942592 49.78711904 -112.89237276 53.71526745 -109.1875 57 C-105.35703758 59.48909301 -105.35703758 59.48909301 -101 60 C-94.77207179 55.91724706 -92.51944691 50.11338834 -91 43 C-91.45276914 39.55895452 -92.54854266 37.44518763 -95 35 C-100.66297215 31.40407384 -103.31274426 31.76607026 -109 35 Z M-62 37 C-64.97547572 41.46321358 -64.62063568 45.76572319 -64 51 C-62.01031547 54.91075925 -60.63466354 56.57689098 -57 59 C-52.46626723 59.56816573 -52.46626723 59.56816573 -48.45703125 57.84375 C-46.55745378 55.43999514 -45.41286931 52.99490231 -44.1875 50.1875 C-43.72730469 49.17042969 -43.26710938 48.15335938 -42.79296875 47.10546875 C-41.82044852 43.29683042 -42.37704025 41.53290628 -44 38 C-46.26191747 35.2490193 -48.10855273 33.43367705 -51.3125 31.875 C-55.57517617 32.07326401 -58.72448287 34.36801714 -62 37 Z M-29 35 C-28 37 -28 37 -28 37 Z " fill="#36644B" transform="translate(518,92)"/>
<path d="M0 0 C2.64722162 2.12349072 4.90259003 4.33454149 7 7 C8.0209375 8.28970703 8.0209375 8.28970703 9.0625 9.60546875 C11.54619269 13.9569384 12.27367828 17.90065768 13 22.8125 C13.15855469 23.66392578 13.31710937 24.51535156 13.48046875 25.39257812 C14.67613207 33.16438971 12.50148661 38.13459378 8.31640625 44.6015625 C2.7499872 51.02340006 -3.40240121 54.3980896 -11 58 C-9.78376953 58.70962891 -9.78376953 58.70962891 -8.54296875 59.43359375 C12.91629008 72.24919303 12.91629008 72.24919303 17 81 C17.49410657 85.11755472 16.92387208 87.41390244 15 91 C13.25215533 91.13560864 11.50126074 91.23227209 9.75 91.3125 C8.77546875 91.37050781 7.8009375 91.42851562 6.796875 91.48828125 C2.92593463 90.81248859 2.35204213 89.11792061 0 86 C-2.83791269 83.54620207 -5.84808797 81.33914392 -8.875 79.125 C-10.13244019 78.19953369 -10.13244019 78.19953369 -11.4152832 77.25537109 C-18.277434 72.30877072 -25.24201772 68.36643277 -33 65 C-32.72285156 66.2065625 -32.44570313 67.413125 -32.16015625 68.65625 C-31.79406923 70.27078763 -31.42819517 71.88537357 -31.0625 73.5 C-30.88009766 74.29148437 -30.69769531 75.08296875 -30.50976562 75.8984375 C-27.40132406 89.68861461 -27.40132406 89.68861461 -29.3125 93.875 C-31 96 -31 96 -33 98 C-39.23846448 98.56713313 -39.23846448 98.56713313 -41.59619141 96.8112793 C-47.34958631 89.38789899 -48.17647175 77.66932815 -49.625 68.6875 C-49.82867187 67.48416016 -50.03234375 66.28082031 -50.2421875 65.04101562 C-50.85528325 61.36440619 -51.43483581 57.68426741 -52 54 C-52.18981445 52.78586426 -52.37962891 51.57172852 -52.57519531 50.32080078 C-53.83250991 41.72008929 -54.43126975 33.26057881 -54.48046875 24.58105469 C-54.50026457 22.4718096 -54.562789 20.36618217 -54.625 18.2578125 C-54.79905792 7.02026019 -54.79905792 7.02026019 -51.140625 2.65234375 C-48.26892229 -0.03665466 -45.08837844 -3 -41 -3 C-41 -3.99 -41 -4.98 -41 -6 C-40.071875 -5.79375 -39.14375 -5.5875 -38.1875 -5.375 C-34.80425825 -4.87125777 -32.08424319 -5.28244408 -28.75 -6 C-17.80680846 -8.14982208 -9.39307438 -5.98473025 0 0 Z M-37.27734375 15.0625 C-39.67519054 19.15134533 -39.26538364 22.20374298 -38.8125 26.8125 C-38.72645508 27.96588867 -38.72645508 27.96588867 -38.63867188 29.14257812 C-38.24842077 34.11513255 -37.64839749 39.05526433 -37 44 C-28.252122 45.14481476 -21.65462322 45.71903576 -14 41 C-12.906875 40.38125 -11.81375 39.7625 -10.6875 39.125 C-5.99957187 35.41826613 -3.8901115 31.86944809 -3 26 C-2.79290072 22.46338152 -3.00913846 20.97854449 -4.4375 17.625 C-9.06369165 12.8859744 -15.01216734 10.20605742 -21.625 9.75 C-27.5014625 9.84757964 -32.86500669 11.06642115 -37.27734375 15.0625 Z " fill="#36644B" transform="translate(374,78)"/>
<path d="M0 0 C1.91796875 0.90625 1.91796875 0.90625 3.625 2 C6.92975762 3.95837488 7.52800486 4.22953663 11.0625 4.0625 C16.36562167 3.97832347 19.16898264 5.61436524 23.3125 8.75 C25 11 25 11 25.375 14.5 C25.65845232 18.23522052 25.65845232 18.23522052 28.875 20.4375 C32.95343601 22.47671801 35.06957156 22.01839282 39.25 20.8125 C44.094423 19.69695654 46.5156012 20.79713743 51 23 C52.72191404 23.35026512 54.4522175 23.66097106 56.1875 23.9375 C59.30728457 24.51979666 60.86169481 24.90318637 63.5 26.75 C65 29 65 29 65.9375 32 C66.76271909 35.18432457 66.76271909 35.18432457 69.5625 37 C72 39 72 39 73 41.9375 C73 45.57241294 72.19961414 47.14864833 70 50 C66.606458 51.696771 62.80873843 51.42675548 59.0625 51.625 C58.23814453 51.6765625 57.41378906 51.728125 56.56445312 51.78125 C55.77103516 51.82507813 54.97761719 51.86890625 54.16015625 51.9140625 C53.43449463 51.9548291 52.70883301 51.9955957 51.96118164 52.03759766 C50 52 50 52 47 51 C47 54.63 47 58.26 47 62 C45.68 62 44.36 62 43 62 C43 58.37 43 54.74 43 51 C41.4840625 51.2784375 41.4840625 51.2784375 39.9375 51.5625 C35.97194054 52.00311772 32.92045824 51.61901972 29 51 C27.58264852 51.07073658 26.16588012 51.15422749 24.75 51.25 C21 51 21 51 18.875 48.875 C17.76431768 45.22561523 18.48392654 43.43111362 20 40 C18.7934375 40.2475 18.7934375 40.2475 17.5625 40.5 C12.29100427 41.23985905 7.0936577 41.6978859 2 40 C1.67 44.62 1.34 49.24 1 54 C-0.65 54 -2.3 54 -4 54 C-4.33 49.38 -4.66 44.76 -5 40 C-5.969375 40.20625 -6.93875 40.4125 -7.9375 40.625 C-11.90926305 41.22359565 -15.15336031 40.4466125 -18.984375 39.375 C-21.19398806 38.79554341 -21.19398806 38.79554341 -24 40 C-31.09859155 40.56338028 -31.09859155 40.56338028 -34.5 38.4375 C-36.59311615 35.03618625 -36.55147685 32.92927257 -36 29 C-34.69864875 27.30824337 -33.36244796 25.64295195 -32 24 C-31.39486869 22.07455177 -31.39486869 22.07455177 -31 20 C-30.16192412 16.13756332 -28.89042574 13.80784215 -26 11 C-23.03533048 9.48151073 -21.34238213 9 -18 9 C-17.690625 7.88625 -17.690625 7.88625 -17.375 6.75 C-13.8208701 -0.35825979 -7.19661356 -1.19369667 0 0 Z " fill="#377439" transform="translate(610,96)"/>
<path d="M0 0 C1.27875 0.02191406 2.5575 0.04382813 3.875 0.06640625 C4.21756836 1.07952881 4.56013672 2.09265137 4.91308594 3.13647461 C6.1985191 6.93432202 7.48956794 10.73024122 8.78222656 14.52563477 C9.33842185 16.1611905 9.89314081 17.79724913 10.44628906 19.43383789 C14.66942395 31.94207611 14.66942395 31.94207611 19.875 44.06640625 C20.38289063 43.050625 20.89078125 42.03484375 21.4140625 40.98828125 C25.56770833 32.68098958 29.72135417 24.37369792 33.875 16.06640625 C36.845 16.06640625 39.815 16.06640625 42.875 16.06640625 C43.25309814 16.74743408 43.63119629 17.42846191 44.02075195 18.13012695 C45.73780469 21.21597844 47.46255122 24.29746215 49.1875 27.37890625 C49.78240234 28.45076172 50.37730469 29.52261719 50.99023438 30.62695312 C51.56708984 31.65498047 52.14394531 32.68300781 52.73828125 33.7421875 C53.26719971 34.69005127 53.79611816 35.63791504 54.34106445 36.61450195 C55.69473126 38.77825745 56.98416139 40.3738207 58.875 42.06640625 C59.14127197 41.35210449 59.40754395 40.63780273 59.68188477 39.90185547 C72.63050406 5.31090219 72.63050406 5.31090219 77.875 0.06640625 C81.5 -0.05859375 81.5 -0.05859375 84.875 0.06640625 C86.69530743 8.61633508 84.45005016 14.86244165 81.5 22.94140625 C81.04190494 24.22961853 80.58414414 25.51794973 80.12670898 26.80639648 C70.81605421 52.68927186 70.81605421 52.68927186 63.875 61.06640625 C58.22470179 60.9486917 55.19158427 59.42827271 51.07421875 55.5859375 C46.38271561 50.21112484 42.66185077 44.09587971 38.875 38.06640625 C38.37871094 39.10539062 37.88242188 40.144375 37.37109375 41.21484375 C27.013541 62.62867304 27.013541 62.62867304 21.87109375 64.984375 C19.407767 65.30689786 18.16297273 65.03277041 15.875 64.06640625 C10.87421315 58.45654921 7.85486004 51.22026288 4.9375 44.37890625 C4.51291504 43.39083984 4.08833008 42.40277344 3.65087891 41.38476562 C0.70395853 34.37791538 -1.90804075 27.29732054 -4.25 20.06640625 C-4.54511475 19.16575439 -4.84022949 18.26510254 -5.14428711 17.3371582 C-8.65201083 6.02498974 -8.65201083 6.02498974 -6.125 1.12890625 C-3.8231511 -0.09395098 -2.57741321 -0.04416938 0 0 Z " fill="#3A9B32" transform="translate(86.125,75.93359375)"/>
<path d="M0 0 C1.36125 0.37125 1.36125 0.37125 2.75 0.75 C5.96443909 8.93220858 6.84495828 17.07224704 7.75 25.75 C8.884375 25.18410156 10.01875 24.61820313 11.1875 24.03515625 C12.7080358 23.2936604 14.22888609 22.55280918 15.75 21.8125 C16.49378906 21.43931641 17.23757813 21.06613281 18.00390625 20.68164062 C23.0068011 18.26720007 27.20348395 17.14708013 32.75 16.75 C34.7853579 18.94818653 35.75435002 20.08553495 35.734375 23.13671875 C34.34205059 26.83300855 31.74535191 28.05765682 28.4375 29.875 C24.73074518 32.00135548 21.10447859 34.08298246 17.75 36.75 C18.80960937 37.36488281 19.86921875 37.97976562 20.9609375 38.61328125 C22.34916593 39.42933445 23.73717542 40.24576017 25.125 41.0625 C25.82367188 41.46662109 26.52234375 41.87074219 27.2421875 42.28710938 C28.24765625 42.88168945 28.24765625 42.88168945 29.2734375 43.48828125 C29.89138184 43.84962158 30.50932617 44.21096191 31.14599609 44.58325195 C32.75 45.75 32.75 45.75 34.75 48.75 C35.125 51.25 35.125 51.25 34.75 53.75 C32.4504719 56.4174526 30.99785353 56.72595672 27.48828125 57.06640625 C23.06027722 56.69162221 21.07804836 55.45302972 17.5 52.875 C16.48421875 52.15570313 15.4684375 51.43640625 14.421875 50.6953125 C13.54015625 50.05335937 12.6584375 49.41140625 11.75 48.75 C10.76 48.09 9.77 47.43 8.75 46.75 C8.88019531 47.55824219 9.01039063 48.36648437 9.14453125 49.19921875 C10.2721963 57.93598813 10.2721963 57.93598813 7.625 62.0625 C4.75 63.75 4.75 63.75 1.9375 63.5625 C1.215625 63.294375 0.49375 63.02625 -0.25 62.75 C-3.80611403 54.02135647 -4.43715807 45.0445285 -5.25 35.75 C-5.34168457 34.70924316 -5.43336914 33.66848633 -5.52783203 32.59619141 C-5.81790781 29.25222137 -6.09908722 25.90766747 -6.375 22.5625 C-6.46273682 21.49966797 -6.55047363 20.43683594 -6.64086914 19.34179688 C-7.80187329 4.59903583 -7.80187329 4.59903583 -5.625 1.25 C-3.25 -0.25 -3.25 -0.25 0 0 Z " fill="#3B9B33" transform="translate(263.25,77.25)"/>
<path d="M0 0 C1.37310707 1.29233607 2.71034824 2.62437146 4 4 C6.27739581 4.22067789 8.46148584 4.1212955 10.74609375 4.0234375 C13.87185075 3.99093396 16.20030942 4.63429728 19 6 C20.4375 7.6875 20.4375 7.6875 21 10 C20.625 13.75 20.625 13.75 20 17 C20.928125 17.268125 21.85625 17.53625 22.8125 17.8125 C25.76240366 18.91148371 27.05615186 19.62418561 29 22 C28.505 23.485 28.505 23.485 28 25 C27.360625 25.103125 26.72125 25.20625 26.0625 25.3125 C25.381875 25.539375 24.70125 25.76625 24 26 C22.6954344 28.99615946 22.6954344 28.99615946 22 32 C5.8048913 34.05652174 5.8048913 34.05652174 1.4375 31.5 C0.963125 31.005 0.48875 30.51 0 30 C1.09758507 29.15801693 2.20335317 28.32669329 3.3125 27.5 C3.92738281 27.0359375 4.54226563 26.571875 5.17578125 26.09375 C7 25 7 25 10 25 C9.505 23.515 9.505 23.515 9 22 C8.278125 22.28875 7.55625 22.5775 6.8125 22.875 C4.20833333 23.91666667 1.60416667 24.95833333 -1 26 C-1 23.69 -1 21.38 -1 19 C-1.99 19 -2.98 19 -4 19 C-4 21.31 -4 23.62 -4 26 C-7.91211733 24.84414715 -10.8745041 23.64465038 -14 21 C-13.63594751 23.70438996 -13.31857318 24.74406383 -11.15234375 26.484375 C-10.42144531 26.90203125 -9.69054687 27.3196875 -8.9375 27.75 C-8.20402344 28.17796875 -7.47054687 28.6059375 -6.71484375 29.046875 C-6.14894531 29.36140625 -5.58304688 29.6759375 -5 30 C-5.33 30.66 -5.66 31.32 -6 32 C-11.81353865 33.93784622 -16.3535089 32.92494015 -22 31 C-22.99 31.33 -23.98 31.66 -25 32 C-27.33299825 32.03954234 -29.66708189 32.04401732 -32 32 C-32.66 30.35 -33.32 28.7 -34 27 C-30.25 22.125 -30.25 22.125 -28 21 C-27.72327953 18.96853943 -27.72327953 18.96853943 -27.6875 16.625 C-27.28588441 12.26954816 -27.28588441 12.26954816 -24.8125 9.9375 C-21.7065761 8.90219203 -19.25303688 8.77304394 -16 9 C-15.9175 8.071875 -15.835 7.14375 -15.75 6.1875 C-15 3 -15 3 -13.296875 1.328125 C-9.16321339 -1.06208749 -4.62536728 -0.67601522 0 0 Z " fill="#69B464" transform="translate(611,100)"/>
<path d="M0 0 C4.54646701 2.89609155 6.50785802 6.45990281 8.23828125 11.42578125 C9.23264596 18.95289087 8.21837998 25.90684517 4.23828125 32.42578125 C0.07486949 37.11939785 -4.42959788 40.89890169 -10.78515625 41.671875 C-17.31379758 42.03952886 -22.36758198 40.41503369 -27.30078125 36.0703125 C-32.77969298 30.09477426 -33.22907378 23.10603288 -33.07421875 15.36328125 C-32.4427421 9.42740071 -30.12674036 5.82182608 -26.01171875 1.61328125 C-17.09460794 -4.38862025 -9.60860762 -5.17610881 0 0 Z M-19.76171875 12.42578125 C-21.34540897 14.79624065 -21.78362077 16.02966755 -21.625 18.8984375 C-21.44324219 19.75308594 -21.26148438 20.60773438 -21.07421875 21.48828125 C-20.90535156 22.34550781 -20.73648438 23.20273438 -20.5625 24.0859375 C-19.68405841 26.65270097 -18.88508435 27.76852029 -16.76171875 29.42578125 C-13.85166972 30.50801491 -13.85166972 30.50801491 -10.76171875 30.42578125 C-6.78740544 27.70053784 -5.21124489 23.92694138 -3.76171875 19.42578125 C-3.82968712 15.41564743 -4.168801 13.25163097 -6.51171875 9.98828125 C-8.64721012 8.28910532 -8.64721012 8.28910532 -11.13671875 7.92578125 C-14.74910484 8.61385479 -16.90672307 10.14178471 -19.76171875 12.42578125 Z " fill="#429938" transform="translate(203.76171875,99.57421875)"/>
<path d="M0 0 C4.57790089 4.14872269 6.61531001 10.41943448 9 16 C9.42410156 15.54109375 9.84820312 15.0821875 10.28515625 14.609375 C16.25465906 8.36435667 21.74337484 4.46934153 30.5 3.6875 C34 4 34 4 36.5 5.6875 C38 8 38 8 38 10.5625 C36.73690018 13.6413058 35.89408484 14.33590122 33 16 C32.36835938 16.21398437 31.73671875 16.42796875 31.0859375 16.6484375 C23.24909414 19.44533213 18.19065895 25.00409502 14 32 C13.44135163 34.83230817 13.45158485 37.01335602 13.77734375 39.8671875 C14.07021027 42.6725405 13.3415022 44.55373128 12 47 C11 48 11 48 8.6875 48.375 C6 48 6 48 3.93359375 45.8671875 C1.83037392 42.74847365 1.11085995 40.42043397 0.375 36.75 C0.13265625 35.60144531 -0.1096875 34.45289063 -0.359375 33.26953125 C-0.73108011 31.3724753 -1.09816494 29.47447908 -1.453125 27.57421875 C-2.34860278 23.03878962 -3.75442718 19.11531535 -5.625 14.875 C-7.61332792 10.26302045 -8.86736999 6.98737743 -8 2 C-4.75846834 -0.1610211 -3.76307099 -0.64247553 0 0 Z " fill="#399C31" transform="translate(219,94)"/>
<path d="M0 0 C0.66 0.66 1.32 1.32 2 2 C4.27279815 2.34070409 6.51422264 2.44141829 8.80859375 2.55859375 C11.48309814 3.09730854 12.39741024 3.81418929 14 6 C14.1546875 7.7325 14.1546875 7.7325 14.3125 9.5 C14.539375 10.655 14.76625 11.81 15 13 C17.93449408 15.01041003 17.93449408 15.01041003 21 16 C21.125 18.875 21.125 18.875 21 22 C18.0991308 24.9008692 14.96116375 24.49891028 11.0625 24.6875 C10.33353516 24.73455078 9.60457031 24.78160156 8.85351562 24.83007812 C5.58041124 25.01308396 3.1375757 25.04585857 0 24 C0 23.01 0 22.02 0 21 C3 19 3 19 6 19 C6 18.01 6 17.02 6 16 C2.04 17.98 2.04 17.98 -2 20 C-2 18.02 -2 16.04 -2 14 C-2.99 14 -3.98 14 -5 14 C-5 15.65 -5 17.3 -5 19 C-6.98 18.34 -8.96 17.68 -11 17 C-10.175 17.78375 -9.35 18.5675 -8.5 19.375 C-6 22 -6 22 -6 24 C-12.6 24 -19.2 24 -26 24 C-26.33 22.35 -26.66 20.7 -27 19 C-26.34 19 -25.68 19 -25 19 C-25 18.34 -25 17.68 -25 17 C-24.34 16.67 -23.68 16.34 -23 16 C-22.66073053 13.66752239 -22.32759934 11.33414529 -22 9 C-19.23776722 6.23776722 -16.79293383 6.42143709 -13 6 C-12.9175 5.401875 -12.835 4.80375 -12.75 4.1875 C-12 2 -12 2 -10.4375 0.1875 C-6.65773112 -1.65392587 -4.08822121 -0.85720767 0 0 Z " fill="#559B5B" transform="translate(658,120)"/>
<path d="M0 0 C0.66 0.66 1.32 1.32 2 2 C4.32591254 1.75870311 4.32591254 1.75870311 6.875 1.0625 C10.33657611 0.19968924 12.58772788 -0.1506499 16 1 C15 4 15 4 12.875 5.25 C9.30033417 6.18252152 6.59483517 5.70486964 3 5 C2.731875 5.639375 2.46375 6.27875 2.1875 6.9375 C1 9 1 9 -2 10 C-3.31999161 19.04333858 -3.31999161 19.04333858 -2 28 C0.16071467 30.07976712 0.16071467 30.07976712 3 31 C3.928125 31.391875 4.85625 31.78375 5.8125 32.1875 C6.534375 32.455625 7.25625 32.72375 8 33 C8 33.66 8 34.32 8 35 C7.360625 35.103125 6.72125 35.20625 6.0625 35.3125 C5.381875 35.539375 4.70125 35.76625 4 36 C3.67 36.99 3.34 37.98 3 39 C-1.5076467 38.46968862 -4.41954788 36.74778884 -8 34 C-8 33.34 -8 32.68 -8 32 C-8.61875 31.835 -9.2375 31.67 -9.875 31.5 C-12.64709599 29.54322636 -12.97285699 27.58699947 -13.61328125 24.34375 C-13.74089844 23.5703125 -13.86851562 22.796875 -14 22 C-14.23783203 20.77796875 -14.23783203 20.77796875 -14.48046875 19.53125 C-15.67443757 11.87093518 -13.61890659 7.61228496 -9.1875 1.5 C-6.04622917 -0.65401428 -3.71379744 -0.41264416 0 0 Z " fill="#379C31" transform="translate(186,100)"/>
<path d="M0 0 C2.86724686 0.57344937 3.8614515 0.8614515 6 3 C8.8823308 9.75628918 9.88976733 16.71075229 9 24 C7.5 27.6875 7.5 27.6875 6 30 C4.68 30 3.36 30 2 30 C1.67 30.99 1.34 31.98 1 33 C-1.60242414 34.64820195 -2.86248779 35 -6 35 C-6 34.34 -6 33.68 -6 33 C-5.34 33 -4.68 33 -4 33 C-3.7018576 29.2236068 -3.7018576 29.2236068 -5 27 C-4.0520411 24.97481509 -3.04808041 22.97522846 -2 21 C-1.00224927 18.00674781 -0.92586025 16.11386969 -1 13 C-1.07413975 9.88613031 -0.99775073 7.99325219 0 5 C-0.33 4.01 -0.66 3.02 -1 2 C-0.67 1.34 -0.34 0.68 0 0 Z " fill="#3B9B33" transform="translate(202,102)"/>
<path d="M0 0 C1.36125 0.37125 1.36125 0.37125 2.75 0.75 C2.75 1.41 2.75 2.07 2.75 2.75 C0.44 3.41 -1.87 4.07 -4.25 4.75 C-4.25 8.38 -4.25 12.01 -4.25 15.75 C-2.6 15.09 -0.95 14.43 0.75 13.75 C1.08 14.08 1.41 14.41 1.75 14.75 C1.36103342 18.87304572 0.7902182 22.14961495 -1.25 25.75 C-1.92966676 27.41140763 -2.59938905 29.07700041 -3.25 30.75 C-2.92 31.08 -2.59 31.41 -2.25 31.75 C-2.16348389 33.16570123 -2.14295096 34.585595 -2.15234375 36.00390625 C-2.15556641 36.85791016 -2.15878906 37.71191406 -2.16210938 38.59179688 C-2.17048828 39.48962891 -2.17886719 40.38746094 -2.1875 41.3125 C-2.19201172 42.21419922 -2.19652344 43.11589844 -2.20117188 44.04492188 C-2.21299775 46.28001314 -2.2294778 48.51497437 -2.25 50.75 C-1.59 50.75 -0.93 50.75 -0.25 50.75 C-0.105625 51.8225 0.03875 52.895 0.1875 54 C0.58749442 56.66662949 1.02591924 59.16399729 1.75 61.75 C4.39452575 61.03795759 4.39452575 61.03795759 6.75 58.75 C7.51562117 55.09442851 7.68037367 51.47817347 7.75 47.75 C8.08 47.75 8.41 47.75 8.75 47.75 C10.49434444 57.61159085 10.49434444 57.61159085 7.625 62 C4.75 63.75 4.75 63.75 1.9375 63.5625 C1.215625 63.294375 0.49375 63.02625 -0.25 62.75 C-3.80611403 54.02135647 -4.43715807 45.0445285 -5.25 35.75 C-5.34168457 34.70924316 -5.43336914 33.66848633 -5.52783203 32.59619141 C-5.81790781 29.25222137 -6.09908722 25.90766747 -6.375 22.5625 C-6.46273682 21.49966797 -6.55047363 20.43683594 -6.64086914 19.34179688 C-7.80187329 4.59903583 -7.80187329 4.59903583 -5.625 1.25 C-3.25 -0.25 -3.25 -0.25 0 0 Z " fill="#3F9A36" transform="translate(263.25,77.25)"/>
<path d="M0 0 C1.670625 0.061875 1.670625 0.061875 3.375 0.125 C3.705 3.095 4.035 6.065 4.375 9.125 C3.385 9.62 3.385 9.62 2.375 10.125 C1.715 9.795 1.055 9.465 0.375 9.125 C0.41625 10.176875 0.4575 11.22875 0.5 12.3125 C0.38352125 15.86510173 -0.09708068 17.97366641 -1.625 21.125 C-2.285 21.125 -2.945 21.125 -3.625 21.125 C-3.955 21.785 -4.285 22.445 -4.625 23.125 C-7.1 22.135 -7.1 22.135 -9.625 21.125 C-10.09000903 13.91736 -8.96105971 8.56578681 -5.625 2.125 C-3.625 0.125 -3.625 0.125 0 0 Z " fill="#379D2F" transform="translate(167.625,75.875)"/>
<path d="M0 0 C3 1 3 1 4.1875 3.0625 C4.455625 3.701875 4.72375 4.34125 5 5 C5.99 4.01 6.98 3.02 8 2 C9.03203275 5.09609825 8.94779057 6.20241326 8.4375 9.3125 C7.93238285 13.39331486 8.07906638 16.24960579 10 20 C11.83572704 21.54400659 11.83572704 21.54400659 14 22 C14.99 21.67 15.98 21.34 17 21 C16.319375 20.236875 15.63875 19.47375 14.9375 18.6875 C14.298125 17.800625 13.65875 16.91375 13 16 C13.33 15.01 13.66 14.02 14 13 C15.8125 13.1875 15.8125 13.1875 18 14 C19.75 16.5625 19.75 16.5625 21 19 C23.49505962 16.50494038 23.35948376 15.32671112 23.625 11.875 C23.69976562 10.96492188 23.77453125 10.05484375 23.8515625 9.1171875 C23.90054688 8.41851562 23.94953125 7.71984375 24 7 C24.99 7.33 25.98 7.66 27 8 C28.16178053 11.42185632 28.11137704 12.74710114 26.62890625 16.11328125 C21.33775625 24.30506169 21.33775625 24.30506169 17.89453125 26.09375 C15.43771991 26.35986496 14.19903642 26.13616881 12 25 C6.24451478 19.35519719 2.88549451 10.38768453 0 3 C0 2.01 0 1.02 0 0 Z " fill="#3E9C37" transform="translate(90,115)"/>
<path d="M0 0 C0.99 0 1.98 0 3 0 C3 2.31 3 4.62 3 7 C3.54269531 6.62746094 4.08539062 6.25492187 4.64453125 5.87109375 C5.35996094 5.39800781 6.07539062 4.92492187 6.8125 4.4375 C7.52019531 3.96183594 8.22789062 3.48617187 8.95703125 2.99609375 C11 2 11 2 14 3 C14 3.99 14 4.98 14 6 C11.03 7.65 8.06 9.3 5 11 C5.99 12.485 5.99 12.485 7 14 C1.2364368 16.64812363 -3.90932576 15.8019749 -10 15 C-10 14.67 -10 14.34 -10 14 C-7.36 13.34 -4.72 12.68 -2 12 C-3.34131876 9.31736248 -4.938704 8.77928518 -7.5625 7.375 C-8.38878906 6.92898437 -9.21507812 6.48296875 -10.06640625 6.0234375 C-10.70449219 5.68570313 -11.34257813 5.34796875 -12 5 C-11.34 4.67 -10.68 4.34 -10 4 C-10 3.34 -10 2.68 -10 2 C-6.66666667 3.66666667 -3.33333333 5.33333333 0 7 C0 4.69 0 2.38 0 0 Z " fill="#2F7830" transform="translate(607,119)"/>
<path d="M0 0 C0.66 0.33 1.32 0.66 2 1 C2.47618812 3.87182587 2.84167597 6.67120147 3.125 9.5625 C3.21136719 10.36880859 3.29773438 11.17511719 3.38671875 12.00585938 C3.59943628 14.00304064 3.80077855 16.00142737 4 18 C-1.75 21 -1.75 21 -4 21 C-4.33 20.01 -4.66 19.02 -5 18 C-5.66 17.67 -6.32 17.34 -7 17 C-7.33 17.99 -7.66 18.98 -8 20 C-8.33 19.01 -8.66 18.02 -9 17 C-8.67 16.34 -8.34 15.68 -8 15 C-8.66 14.67 -9.32 14.34 -10 14 C-9.34 13.67 -8.68 13.34 -8 13 C-7.67 12.01 -7.34 11.02 -7 10 C-5.35 10 -3.7 10 -2 10 C-2.04125 9.0925 -2.0825 8.185 -2.125 7.25 C-2.00468444 4.1217954 -1.6085292 2.61385994 0 0 Z " fill="#359E2F" transform="translate(156,101)"/>
<path d="M0 0 C4.36117634 -0.39506216 6.3830632 0.52016027 9.8125 3.1875 C10.60269531 3.77917969 11.39289063 4.37085937 12.20703125 4.98046875 C14 7 14 7 14.26171875 9.73828125 C14.17535156 10.48464844 14.08898437 11.23101562 14 12 C9.03049088 12.99390182 5.61930435 13.25593933 1 11 C-0.375 8.875 -0.375 8.875 -1 7 C0.32 6.67 1.64 6.34 3 6 C3 5.01 3 4.02 3 3 C2.01 3 1.02 3 0 3 C0 2.01 0 1.02 0 0 Z " fill="#399D2F" transform="translate(282,119)"/>
<path d="M0 0 C2.375 -0.125 2.375 -0.125 5 0 C5.66 0.66 6.32 1.32 7 2 C9.32591254 1.75870311 9.32591254 1.75870311 11.875 1.0625 C15.33657611 0.19968924 17.58772788 -0.1506499 21 1 C20 4 20 4 17.875 5.25 C14.30033417 6.18252152 11.59483517 5.70486964 8 5 C7.6596875 5.8971875 7.6596875 5.8971875 7.3125 6.8125 C5.63289954 9.61183411 3.90894875 10.58100061 1 12 C0.01 12 -0.98 12 -2 12 C-2 11.01 -2 10.02 -2 9 C-0.02 8.34 1.96 7.68 4 7 C4 6.01 4 5.02 4 4 C2.68 3.67 1.36 3.34 0 3 C0 2.01 0 1.02 0 0 Z " fill="#319D2C" transform="translate(181,100)"/>
<path d="M0 0 C0.33 0.66 0.66 1.32 1 2 C1.66 2 2.32 2 3 2 C3 8.27 3 14.54 3 21 C3.66 21 4.32 21 5 21 C5.144375 22.0725 5.28875 23.145 5.4375 24.25 C5.83749442 26.91662949 6.27591924 29.41399729 7 32 C9.64452575 31.28795759 9.64452575 31.28795759 12 29 C12.76562117 25.34442851 12.93037367 21.72817347 13 18 C13.33 18 13.66 18 14 18 C15.74434444 27.86159085 15.74434444 27.86159085 12.875 32.25 C10 34 10 34 7.1875 33.8125 C6.465625 33.544375 5.74375 33.27625 5 33 C0.81746354 22.73377413 -0.22887776 11.03895036 0 0 Z " fill="#4D9342" transform="translate(258,107)"/>
<path d="M0 0 C1.4540625 0.0309375 1.4540625 0.0309375 2.9375 0.0625 C3.205625 0.84625 3.47375 1.63 3.75 2.4375 C4.78564432 5.34364923 4.78564432 5.34364923 7.9375 7.0625 C7.6075 9.3725 7.2775 11.6825 6.9375 14.0625 C6.2775 14.0625 5.6175 14.0625 4.9375 14.0625 C4.9375 13.0725 4.9375 12.0825 4.9375 11.0625 C2.9575 11.3925 0.9775 11.7225 -1.0625 12.0625 C-1.3925 10.7425 -1.7225 9.4225 -2.0625 8.0625 C-3.0525 8.5575 -3.0525 8.5575 -4.0625 9.0625 C-4.16015625 2.91015625 -4.16015625 2.91015625 -4.0625 1.0625 C-3.0625 0.0625 -3.0625 0.0625 0 0 Z " fill="#379A2E" transform="translate(85.0625,77.9375)"/>
<path d="M0 0 C2.41695751 2.41695751 2.45961668 3.68050247 3 7 C3.2475 7.845625 3.495 8.69125 3.75 9.5625 C4 12 4 12 2.6875 14.1875 C1.48274355 15.48149767 0.2501736 16.7498264 -1 18 C-4.70138266 13.34342182 -6.36293003 9.04883379 -6 3 C-5.34 2.34 -4.68 1.68 -4 1 C-4 1.66 -4 2.32 -4 3 C-3.34 3 -2.68 3 -2 3 C-1.67 3.66 -1.34 4.32 -1 5 C-0.67 3.35 -0.34 1.7 0 0 Z " fill="#369D30" transform="translate(96,103)"/>
<path d="M0 0 C1.5 2.3125 1.5 2.3125 1.5 4.875 C0.30610581 7.78511709 -0.73165697 8.84690663 -3.5 10.3125 C-4.49 9.9825 -5.48 9.6525 -6.5 9.3125 C-6.625 3.5625 -6.625 3.5625 -5.5 1.3125 C-6.03625 1.498125 -6.5725 1.68375 -7.125 1.875 C-10.11990614 2.42669324 -12.53745829 1.91847444 -15.5 1.3125 C-11.46019178 -2.72730822 -4.72470585 -3.18917645 0 0 Z " fill="#409839" transform="translate(255.5,99.6875)"/>
<path d="M0 0 C0.99 0 1.98 0 3 0 C3.33 1.65 3.66 3.3 4 5 C4.78375 4.505 5.5675 4.01 6.375 3.5 C9 2 9 2 11 2 C11 2.99 11 3.98 11 5 C9.02 5.66 7.04 6.32 5 7 C5.99 8.98 6.98 10.96 8 13 C7.401875 12.835 6.80375 12.67 6.1875 12.5 C3.88655664 11.8885876 3.88655664 11.8885876 1 12 C0.938125 11.38125 0.87625 10.7625 0.8125 10.125 C0.544375 9.42375 0.27625 8.7225 0 8 C-1.66072849 7.31867549 -3.327767 6.65257873 -5 6 C-6.3125 3.875 -6.3125 3.875 -7 2 C-3.535 3.485 -3.535 3.485 0 5 C0 3.35 0 1.7 0 0 Z " fill="#2F7836" transform="translate(653,134)"/>
<path d="M0 0 C0.33 0 0.66 0 1 0 C1.12117187 0.96421875 1.24234375 1.9284375 1.3671875 2.921875 C1.53476563 4.18515625 1.70234375 5.4484375 1.875 6.75 C2.03742188 8.00296875 2.19984375 9.2559375 2.3671875 10.546875 C3.51558553 16.81344205 5.87925747 19.18454478 11 23 C15.09351945 25.2514357 17.49568565 24.86252828 22 24 C24.1875 24.375 24.1875 24.375 26 25 C26.99 25.33 27.98 25.66 29 26 C23.84220649 28.66208697 18.34191857 29.05219619 12.81640625 27.3125 C6.79500798 24.5806747 3.23758929 21.005574 0.6875 14.8125 C-0.20932375 9.83920467 -0.16398111 5.03786412 0 0 Z " fill="#4F9448" transform="translate(171,113)"/>
<path d="M0 0 C2.2739925 3.41098876 3.59263254 6.93199323 5 10.75 C5.26039062 11.4409375 5.52078125 12.131875 5.7890625 12.84375 C7.40451046 17.18424654 8.78338665 21.53128559 10 26 C5.25 24.125 5.25 24.125 3 23 C3.20625 22.071875 3.4125 21.14375 3.625 20.1875 C4.36692966 16.84826598 4.36692966 16.84826598 2 14 C2 12.68 2 11.36 2 10 C1.34 11.65 0.68 13.3 0 15 C-0.33 15 -0.66 15 -1 15 C-1.09038099 9.84828377 -0.84681133 5.08086796 0 0 Z " fill="#47963D" transform="translate(95,94)"/>
<path d="M0 0 C1.875 1.6875 1.875 1.6875 3 4 C3.0625 6.5 3.0625 6.5 2 9 C-3.08108108 13 -3.08108108 13 -6 13 C-5.67 11.68 -5.34 10.36 -5 9 C-4.01 9 -3.02 9 -2 9 C-2 7.35 -2 5.7 -2 4 C-8.27950505 3.75014469 -8.27950505 3.75014469 -14 6 C-14.99 5.67 -15.98 5.34 -17 5 C-15.10908264 4.15557119 -13.21202485 3.32488413 -11.3125 2.5 C-10.25675781 2.0359375 -9.20101563 1.571875 -8.11328125 1.09375 C-5.11546562 0.04056509 -3.13572484 -0.36923298 0 0 Z " fill="#4A923F" transform="translate(296,94)"/>
<path d="M0 0 C0 0.99 0 1.98 0 3 C1.32 3.33 2.64 3.66 4 4 C4 4.99 4 5.98 4 7 C0.535 8.485 0.535 8.485 -3 10 C-3.33 9.01 -3.66 8.02 -4 7 C-3.67 6.34 -3.34 5.68 -3 5 C-3.66 5 -4.32 5 -5 5 C-5.144375 5.78375 -5.28875 6.5675 -5.4375 7.375 C-6 10 -6 10 -7 12 C-7.22622081 13.70363822 -7.40888473 15.41328701 -7.5625 17.125 C-7.64628906 18.03507812 -7.73007813 18.94515625 -7.81640625 19.8828125 C-7.87699219 20.58148438 -7.93757812 21.28015625 -8 22 C-8.33 22 -8.66 22 -9 22 C-10.17811017 15.75089388 -10.45379228 11.28520203 -7.18359375 5.6953125 C-3.20737327 0 -3.20737327 0 0 0 Z " fill="#419838" transform="translate(181,100)"/>
<path d="M0 0 C0.66 0.33 1.32 0.66 2 1 C1.505 1.7425 1.505 1.7425 1 2.5 C-0.17429637 5.43574092 -0.02887249 7.90578986 0.05859375 11.03125 C-0.03074033 14.03287514 -0.84269242 16.84269242 -3 19 C-5.3125 19.375 -5.3125 19.375 -8 19 C-12.54710294 14.71273151 -13.90215977 9.69060645 -14.125 3.5625 C-14.08375 2.716875 -14.0425 1.87125 -14 1 C-13.34 1 -12.68 1 -12 1 C-11.85304687 1.98742187 -11.70609375 2.97484375 -11.5546875 3.9921875 C-11.33039063 5.27351562 -11.10609375 6.55484375 -10.875 7.875 C-10.66617188 9.15117187 -10.45734375 10.42734375 -10.2421875 11.7421875 C-9.32316479 15.29064602 -9.32316479 15.29064602 -5.8828125 16.4453125 C-4.93148437 16.62835938 -3.98015625 16.81140625 -3 17 C-2.95101562 15.94039062 -2.90203125 14.88078125 -2.8515625 13.7890625 C-2.77653291 12.40101503 -2.70098515 11.01299549 -2.625 9.625 C-2.57859375 8.57699219 -2.57859375 8.57699219 -2.53125 7.5078125 C-2.2265625 2.2265625 -2.2265625 2.2265625 0 0 Z " fill="#519047" transform="translate(233,123)"/>
<path d="M0 0 C2.44396375 1.23851545 4.87963994 2.49000636 7.3125 3.75 C8.00279297 4.09804687 8.69308594 4.44609375 9.40429688 4.8046875 C13.08361078 6.72432954 15.92536983 8.24553869 18 12 C18.4375 14.5625 18.4375 14.5625 18 17 C15.60918389 19.77334669 14.100403 19.98943126 10.4375 20.375 C7 20 7 20 4 17 C7.96 17 11.92 17 16 17 C15.11343277 13.29110633 14.47375881 11.39516972 11.50390625 8.91796875 C10.53324219 8.34691406 9.56257813 7.77585937 8.5625 7.1875 C7.59441406 6.60355469 6.62632812 6.01960938 5.62890625 5.41796875 C3.00840412 3.90722402 3.00840412 3.90722402 0 3 C0 2.01 0 1.02 0 0 Z " fill="#509047" transform="translate(280,114)"/>
<path d="M0 0 C0.99 0.99 1.98 1.98 3 3 C3.66 2.67 4.32 2.34 5 2 C5 6.29 5 10.58 5 15 C3.35 15 1.7 15 0 15 C0 10.05 0 5.1 0 0 Z " fill="#436C42" transform="translate(606,135)"/>
<path d="M0 0 C0.33 0 0.66 0 1 0 C1 1.98 1 3.96 1 6 C0.01 6.495 0.01 6.495 -1 7 C-1 10.96 -1 14.92 -1 19 C-3.31 19 -5.62 19 -8 19 C-6.00386732 12.2813095 -3.2708579 6.19265192 0 0 Z " fill="#409937" transform="translate(115,102)"/>
<path d="M0 0 C2.20273174 0.48949594 4.1289255 1.05893737 6.1875 2 C8.83828868 2.94250264 10.6097304 3.11854406 13.375 3.25 C17.86590605 3.68557283 20.44168998 5.14226622 23.69140625 8.234375 C25.7373527 10.99487588 25.93279693 13.63984635 26 17 C25.34 17 24.68 17 24 17 C21.125 10.375 21.125 10.375 20 7 C16.68455701 5.89485234 13.79589889 5.67892369 10.3125 5.4375 C8.54326172 5.31181641 8.54326172 5.31181641 6.73828125 5.18359375 C5.83464844 5.12300781 4.93101562 5.06242187 4 5 C4 4.34 4 3.68 4 3 C3.34 3 2.68 3 2 3 C2 2.34 2 1.68 2 1 C1.34 0.67 0.68 0.34 0 0 Z " fill="#3E6C40" transform="translate(610,97)"/>
<path d="M0 0 C1.36125 0.37125 1.36125 0.37125 2.75 0.75 C2.75 1.41 2.75 2.07 2.75 2.75 C0.44 3.41 -1.87 4.07 -4.25 4.75 C-4.27721176 6.64575251 -4.29649136 8.54161979 -4.3125 10.4375 C-4.32410156 11.49324219 -4.33570313 12.54898438 -4.34765625 13.63671875 C-4.35590391 16.69777448 -4.35590391 16.69777448 -3.62109375 19.39453125 C-3.17656042 22.21614806 -3.75383551 23.37373875 -5.25 25.75 C-5.58923576 23.39655194 -5.92150534 21.0424516 -6.25 18.6875 C-6.34539062 18.03072266 -6.44078125 17.37394531 -6.5390625 16.69726562 C-8.1367273 5.11419584 -8.1367273 5.11419584 -5.625 1.25 C-3.25 -0.25 -3.25 -0.25 0 0 Z " fill="#4E9443" transform="translate(263.25,77.25)"/>
<path d="M0 0 C0.66 0 1.32 0 2 0 C2 0.99 2 1.98 2 3 C2.99 3 3.98 3 5 3 C5.33 2.34 5.66 1.68 6 1 C6.66 1 7.32 1 8 1 C8.66 2.65 9.32 4.3 10 6 C10.99 5.67 11.98 5.34 13 5 C13.33 6.32 13.66 7.64 14 9 C11 10 11 10 8.125 8.8125 C5.1216571 7.07056112 2.52874319 5.37999359 0 3 C0 2.01 0 1.02 0 0 Z " fill="#389C2C" transform="translate(136,125)"/>
<path d="M0 0 C-0.33 1.98 -0.66 3.96 -1 6 C-1.99 6 -2.98 6 -4 6 C-4.33 6.66 -4.66 7.32 -5 8 C-8 8 -8 8 -9.6875 6.625 C-11 5 -11 5 -11 3 C-7.14243493 0.84694043 -4.44870215 -0.39253254 0 0 Z " fill="#359D2F" transform="translate(295,97)"/>
<path d="M0 0 C0.99 0.33 1.98 0.66 3 1 C3.2475 1.598125 3.495 2.19625 3.75 2.8125 C5.98432235 6.72256411 10.23863984 8.45804303 14.4375 9.75 C14.953125 9.8325 15.46875 9.915 16 10 C16.680625 8.7625 16.680625 8.7625 17.375 7.5 C17.91125 6.675 18.4475 5.85 19 5 C19.66 5 20.32 5 21 5 C19.87548273 7.9719385 18.77706209 10.33440687 17 13 C10.97614076 12.87450293 8.03397389 10.95123759 3.66796875 6.85546875 C1.74971301 4.7215777 0.67770528 2.79553428 0 0 Z " fill="#519146" transform="translate(133,124)"/>
<path d="M0 0 C0 3.63 0 7.26 0 11 C-0.66 10.34 -1.32 9.68 -2 9 C-2.33 10.32 -2.66 11.64 -3 13 C-3.99 12.67 -4.98 12.34 -6 12 C-6 8.21680921 -5.60342066 4.74120806 -5 1 C-3 0 -3 0 0 0 Z " fill="#3F9B37" transform="translate(183,113)"/>
<path d="M0 0 C2.9375 0.8125 2.9375 0.8125 6 2 C6.33 2.99 6.66 3.98 7 5 C5.15115494 8.21115194 3.29374888 9.46564493 0 11 C-0.19406478 9.35492782 -0.38007935 7.70890406 -0.5625 6.0625 C-0.66691406 5.14597656 -0.77132812 4.22945313 -0.87890625 3.28515625 C-0.91886719 2.53105469 -0.95882812 1.77695313 -1 1 C-0.67 0.67 -0.34 0.34 0 0 Z " fill="#399C2F" transform="translate(214,95)"/>
<path d="M0 0 C2.31 0.33 4.62 0.66 7 1 C7.33 1.99 7.66 2.98 8 4 C7.360625 4.103125 6.72125 4.20625 6.0625 4.3125 C5.381875 4.539375 4.70125 4.76625 4 5 C3.67 5.99 3.34 6.98 3 8 C-0.37462715 7.45276317 -2.08235 6.9451 -5 5 C-5 4.34 -5 3.68 -5 3 C-3.35 3 -1.7 3 0 3 C0 2.01 0 1.02 0 0 Z " fill="#349C2C" transform="translate(186,131)"/>
<path d="M0 0 C0.66 0 1.32 0 2 0 C2.144375 0.7425 2.28875 1.485 2.4375 2.25 C2.90187492 4.52027739 3.41863569 6.75759479 4 9 C-0.625 12 -0.625 12 -4 12 C-4 11.34 -4 10.68 -4 10 C-3.34 10 -2.68 10 -2 10 C-1.7018576 6.2236068 -1.7018576 6.2236068 -3 4 C-1.625 2 -1.625 2 0 0 Z " fill="#369D2E" transform="translate(200,125)"/>
<path d="M0 0 C0.66 0.33 1.32 0.66 2 1 C1.55269531 1.37511719 1.10539063 1.75023438 0.64453125 2.13671875 C-2.2721192 4.6056105 -5.04306649 7.04506958 -7.6875 9.8125 C-10 12 -10 12 -14 13 C-14 9.37 -14 5.74 -14 2 C-11.77810176 4.22189824 -11.07401108 6.08482708 -10 9 C-9.52949219 8.51789063 -9.05898437 8.03578125 -8.57421875 7.5390625 C-7.95160156 6.90742187 -7.32898438 6.27578125 -6.6875 5.625 C-6.07261719 4.99851562 -5.45773438 4.37203125 -4.82421875 3.7265625 C-3 2 -3 2 0 0 Z " fill="#47953F" transform="translate(238,101)"/>
<path d="M0 0 C1.93833996 0.08715017 3.8757429 0.19532964 5.8125 0.3125 C7.43091797 0.39951172 7.43091797 0.39951172 9.08203125 0.48828125 C12 1 12 1 13.84375 2.28125 C15.88525512 5.31591977 15.70546147 8.40662993 16 12 C14.68 12 13.36 12 12 12 C11.67 9.03 11.34 6.06 11 3 C7.37 2.67 3.74 2.34 0 2 C0 1.34 0 0.68 0 0 Z " fill="#337136" transform="translate(660,121)"/>
<path d="M0 0 C1.25664978 2.90600261 2 4.79604584 2 8 C0.68 7.34 -0.64 6.68 -2 6 C-2 5.01 -2 4.02 -2 3 C-3.98 3 -5.96 3 -8 3 C-8.66 5.31 -9.32 7.62 -10 10 C-10.33 10 -10.66 10 -11 10 C-11.35706695 3.69181722 -11.35706695 3.69181722 -10 1.0625 C-6.73357754 -0.67278693 -3.65648548 -0.17982715 0 0 Z " fill="#4C9242" transform="translate(90,76)"/>
<path d="M0 0 C3.88433735 3.50843373 3.88433735 3.50843373 4.5 6.125 C4.82252493 8.17170761 4.82252493 8.17170761 6.8125 9.1875 C7.534375 9.455625 8.25625 9.72375 9 10 C9.66 10.2475 10.32 10.495 11 10.75 C13.56899513 11.07112439 14.82443801 10.32087692 17 9 C16.34 10.32 15.68 11.64 15 13 C9.93694617 13.78564628 9.93694617 13.78564628 7 13 C3.39780613 9.33636145 1.00603162 5.04172166 0 0 Z " fill="#519047" transform="translate(95,127)"/>
<path d="M0 0 C2.375 0.375 2.375 0.375 5 2 C6.50344063 5.93527316 7.78852478 10.13621415 6.09765625 14.1328125 C5.73542969 14.74898437 5.37320313 15.36515625 5 16 C4.67 16.99 4.34 17.98 4 19 C1.9375 20.1875 1.9375 20.1875 0 21 C2 16 2 16 3.1875 13.625 C4.28867877 10.0673455 3.85090383 7.59997776 3 4 C1.57324827 1.61971709 1.57324827 1.61971709 0 0 Z " fill="#4F9443" transform="translate(195,108)"/>
<path d="M0 0 C0.66 0.33 1.32 0.66 2 1 C2.30859375 3.0390625 2.30859375 3.0390625 2.4375 5.625 C2.69839846 9.07082867 3.12701807 11.75702855 4.625 14.875 C6.08621242 18.19593732 6.05260903 18.75796418 5 22 C3.98356527 19.81890048 2.98711744 17.63183538 2 15.4375 C1.71382812 14.82841797 1.42765625 14.21933594 1.1328125 13.59179688 C-0.80475659 9.23226642 -1.3831434 5.74738621 -1 1 C-0.67 0.67 -0.34 0.34 0 0 Z " fill="#4C9347" transform="translate(212,95)"/>
<path d="M0 0 C1.670625 0.061875 1.670625 0.061875 3.375 0.125 C3.705 2.765 4.035 5.405 4.375 8.125 C3.715 8.125 3.055 8.125 2.375 8.125 C2.045 6.475 1.715 4.825 1.375 3.125 C-2.75112615 2.67655147 -2.75112615 2.67655147 -5.375 5.625 C-6.1175 6.45 -6.86 7.275 -7.625 8.125 C-5.20681818 0.17954545 -5.20681818 0.17954545 0 0 Z " fill="#4E9343" transform="translate(167.625,75.875)"/>
<path d="M0 0 C1.32 0 2.64 0 4 0 C4 3.3 4 6.6 4 10 C2.68 10 1.36 10 0 10 C0 6.7 0 3.4 0 0 Z " fill="#436B44" transform="translate(653,148)"/>
<path d="M0 0 C4.43936951 1.35647402 6.4156882 3.16808939 9 7 C10.80144635 10.75566553 11.22500475 13.66230269 11.125 17.8125 C11.10695312 18.78832031 11.08890625 19.76414062 11.0703125 20.76953125 C11.03550781 21.87361328 11.03550781 21.87361328 11 23 C10.67 23 10.34 23 10 23 C9.89042969 22.20335938 9.78085938 21.40671875 9.66796875 20.5859375 C8.34536371 11.74706481 6.74281461 6.19609992 0 0 Z " fill="#529047" transform="translate(201,99)"/>
<path d="M0 0 C0.8971875 0.309375 0.8971875 0.309375 1.8125 0.625 C1.8125 1.615 1.8125 2.605 1.8125 3.625 C-1.70809568 4.79853189 -4.493993 4.82646402 -8.1875 4.625 C-8.8475 3.965 -9.5075 3.305 -10.1875 2.625 C-9.424375 2.50125 -8.66125 2.3775 -7.875 2.25 C-4.73430311 1.51960537 -3.19650145 -0.54797168 0 0 Z " fill="#5FAC5C" transform="translate(603.1875,128.375)"/>
<path d="M0 0 C2.97 0 5.94 0 9 0 C9.33 1.32 9.66 2.64 10 4 C9.34 4 8.68 4 8 4 C7.67 3.34 7.34 2.68 7 2 C4.62766389 2.03780298 4.62766389 2.03780298 2 3 C0.60287726 4.95597184 -0.73779907 6.95436401 -2 9 C-2.66 9 -3.32 9 -4 9 C-2.79310745 5.89656201 -1.49403054 2.98806107 0 0 Z " fill="#53934D" transform="translate(120,92)"/>
<path d="M0 0 C2.5 2.3125 2.5 2.3125 5 5 C5 5.99 5 6.98 5 8 C2.03824877 7.38722388 0.61941217 6.74627478 -2 5 C-2 3.68 -2 2.36 -2 1 C-1.34 0.67 -0.68 0.34 0 0 Z " fill="#2F9E29" transform="translate(102,130)"/>
<path d="M0 0 C1 2 1 2 0.328125 4.13671875 C-0.02765625 4.97847656 -0.3834375 5.82023437 -0.75 6.6875 C-1.31074219 8.02167969 -1.31074219 8.02167969 -1.8828125 9.3828125 C-2.25148437 10.24648437 -2.62015625 11.11015625 -3 12 C-3.28617188 12.71929687 -3.57234375 13.43859375 -3.8671875 14.1796875 C-5.75876623 18.87938312 -5.75876623 18.87938312 -8 20 C-6.12849037 12.84870304 -3.50213658 6.50594543 0 0 Z " fill="#509244" transform="translate(159,84)"/>
<path d="M0 0 C0.99 0.33 1.98 0.66 3 1 C-0.07517084 12.52164009 -0.07517084 12.52164009 -2 18 C-3.51553092 14.02549507 -2.49888623 10.79518851 -1.5625 6.75 C-1.27503906 5.48671875 -0.98757812 4.2234375 -0.69140625 2.921875 C-0.46324219 1.95765625 -0.23507813 0.9934375 0 0 Z " fill="#509345" transform="translate(168,85)"/>
<path d="M0 0 C2.97086624 4.45629936 3.12092376 7.67935442 3 13 C2.01 12.67 1.02 12.34 0 12 C-1.47481032 8.5140847 -1.14039067 4.72035279 -1 1 C-0.67 0.67 -0.34 0.34 0 0 Z " fill="#2F9D2C" transform="translate(259,81)"/>
<path d="M0 0 C0.99 0.33 1.98 0.66 3 1 C3.8125 3 3.8125 3 4 6 C2.58832428 8.84968868 0.85115239 11.41863524 -1 14 C-1.33 13.01 -1.66 12.02 -2 11 C-1.67 10.67 -1.34 10.34 -1 10 C-0.76712992 8.31816052 -0.58735834 6.6287584 -0.4375 4.9375 C-0.35371094 4.01839844 -0.26992187 3.09929687 -0.18359375 2.15234375 C-0.12300781 1.44207031 -0.06242187 0.73179688 0 0 Z " fill="#499441" transform="translate(114,122)"/>
<path d="M0 0 C2.81158409 2.49824489 4.44837831 5.278476 6.25 8.5625 C6.79140625 9.53316406 7.3328125 10.50382812 7.890625 11.50390625 C8.25671875 12.32761719 8.6228125 13.15132812 9 14 C8.67 14.66 8.34 15.32 8 16 C7.34 14.35 6.68 12.7 6 11 C5.34 11 4.68 11 4 11 C3.67 9.35 3.34 7.7 3 6 C2.34 6 1.68 6 1 6 C0.67 4.02 0.34 2.04 0 0 Z " fill="#4E8E43" transform="translate(130,96)"/>
<path d="M0 0 C2.475 0.99 2.475 0.99 5 2 C4.01 2.33 3.02 2.66 2 3 C1.67 3.66 1.34 4.32 1 5 C-2.26087791 6.81159884 -5.32553433 8.29337199 -9 9 C-3.85714286 3.42857143 -3.85714286 3.42857143 0 3 C0 2.01 0 1.02 0 0 Z " fill="#395948" transform="translate(333,72)"/>
<path d="M0 0 C0.99 0.33 1.98 0.66 3 1 C0.69 3.64 -1.62 6.28 -4 9 C-4.99 8.67 -5.98 8.34 -7 8 C-5.6875 5.5 -5.6875 5.5 -4 3 C-3.01 3 -2.02 3 -1 3 C-0.67 2.01 -0.34 1.02 0 0 Z " fill="#499440" transform="translate(241,112)"/>
<path d="M0 0 C1.32 0.33 2.64 0.66 4 1 C4 1.66 4 2.32 4 3 C5.41702513 2.85769192 6.8336096 2.71099254 8.25 2.5625 C9.03890625 2.48128906 9.8278125 2.40007812 10.640625 2.31640625 C12.82364639 2.02365007 14.8773182 1.57935581 17 1 C17.33 1.99 17.66 2.98 18 4 C15.5622037 4.05397335 13.12560315 4.09365616 10.6875 4.125 C9.65206055 4.15013672 9.65206055 4.15013672 8.59570312 4.17578125 C4.82864604 4.21217794 3.21568296 4.14378864 0 2 C0 1.34 0 0.68 0 0 Z " fill="#3D5B48" transform="translate(490,127)"/>
<path d="M0 0 C5.1712635 1.96151374 6.72124929 6.26721006 9 11 C8.01 11.495 8.01 11.495 7 12 C5.02 9.03 3.04 6.06 1 3 C0.01 3.495 0.01 3.495 -1 4 C-0.67 2.68 -0.34 1.36 0 0 Z " fill="#4C9440" transform="translate(124,111)"/>
<path d="M0 0 C0.86964775 2.43501369 1.22003747 3.52931115 0.1015625 5.921875 C-0.26195312 6.60765625 -0.62546875 7.2934375 -1 8 C-1.45064632 10.58532701 -1.45064632 10.58532701 -1.625 13.25 C-1.69976562 14.14203125 -1.77453125 15.0340625 -1.8515625 15.953125 C-1.90054688 16.62859375 -1.94953125 17.3040625 -2 18 C-2.33 18 -2.66 18 -3 18 C-4.39765083 10.58637386 -3.95317148 6.46882605 0 0 Z " fill="#499441" transform="translate(175,104)"/>
<path d="M0 0 C3 0 3 0 5.1875 2 C5.785625 2.66 6.38375 3.32 7 4 C6.67 4.99 6.34 5.98 6 7 C5.34 7 4.68 7 4 7 C4 6.01 4 5.02 4 4 C2.35 4 0.7 4 -1 4 C-0.67 2.68 -0.34 1.36 0 0 Z " fill="#369D29" transform="translate(202,108)"/>
<path d="M0 0 C-4.49656104 2.24828052 -8.07872966 2.16682272 -13 2 C-10.14606549 -3.70786901 -4.93669786 -1.64556595 0 0 Z " fill="#51944B" transform="translate(200,139)"/>
<path d="M0 0 C1.37562854 1.28965176 2.70766393 2.62689293 4 4 C4 4.66 4 5.32 4 6 C0.86650268 7.04449911 0.01031744 6.93423645 -3 6 C-2.67 5.01 -2.34 4.02 -2 3 C-1.34 3 -0.68 3 0 3 C0 2.01 0 1.02 0 0 Z " fill="#47953E" transform="translate(139,112)"/>
<path d="M0 0 C6.28388747 -0.48337596 6.28388747 -0.48337596 9.5 1.6875 C11 4 11 4 10.75 6.75 C10.5025 7.4925 10.255 8.235 10 9 C9.67 9 9.34 9 9 9 C9 8.236875 9 7.47375 9 6.6875 C8.29819851 3.8993117 8.29819851 3.8993117 6.15234375 3 C4.11690505 2.25331349 2.08737258 1.58484471 0 1 C0 0.67 0 0.34 0 0 Z " fill="#509049" transform="translate(246,98)"/>
<path d="M0 0 C2.0625 0.4375 2.0625 0.4375 4 1 C4.33 2.32 4.66 3.64 5 5 C5.99 5 6.98 5 8 5 C8.33 5.99 8.66 6.98 9 8 C4.56541027 6.6062718 2.12621626 4.39417765 -1 1 C-0.67 0.67 -0.34 0.34 0 0 Z " fill="#4B9444" transform="translate(275,123)"/>
<path d="M0 0 C0.89203125 0.01804687 1.7840625 0.03609375 2.703125 0.0546875 C3.71632813 0.08949219 3.71632813 0.08949219 4.75 0.125 C4.75 0.455 4.75 0.785 4.75 1.125 C-0.695 1.62 -0.695 1.62 -6.25 2.125 C-6.25 2.785 -6.25 3.445 -6.25 4.125 C-7.9 4.785 -9.55 5.445 -11.25 6.125 C-10.3047226 3.76180651 -9.66996722 2.39497892 -7.5 1 C-4.84738096 -0.03157407 -2.83645051 -0.07464343 0 0 Z " fill="#3E6D3C" transform="translate(605.25,95.875)"/>
<path d="M0 0 C3.875 4.75 3.875 4.75 5 7 C3.35 7.33 1.7 7.66 0 8 C-1.125 6.25 -1.125 6.25 -2 4 C-1.125 1.75 -1.125 1.75 0 0 Z " fill="#3F5D4D" transform="translate(405,143)"/>
<path d="M0 0 C2.66666667 1.33333333 5.33333333 2.66666667 8 4 C5.09399739 5.25664978 3.20395416 6 0 6 C0 4.02 0 2.04 0 0 Z " fill="#4D9855" transform="translate(656,120)"/>
<path d="M0 0 C3 2 3 2 3.73046875 4.6015625 C3.88128906 5.59929687 4.03210938 6.59703125 4.1875 7.625 C4.34605469 8.62789062 4.50460938 9.63078125 4.66796875 10.6640625 C4.77753906 11.43492188 4.88710937 12.20578125 5 13 C2.94876752 10.94876752 2.35852882 9.72994937 1.375 7.0625 C0.98441406 6.02802734 0.98441406 6.02802734 0.5859375 4.97265625 C0 3 0 3 0 0 Z " fill="#529143" transform="translate(85,102)"/>
<path d="M0 0 C2.97 0.33 5.94 0.66 9 1 C9 1.66 9 2.32 9 3 C2.375 4.25 2.375 4.25 -1 2 C-0.67 1.34 -0.34 0.68 0 0 Z " fill="#3F6E40" transform="translate(596,133)"/>
<path d="M0 0 C0.53625 0.61875 1.0725 1.2375 1.625 1.875 C4.31103023 4.2782902 6.55414562 5.06022153 10 6 C8.02 6.99 8.02 6.99 6 8 C3 6.25 3 6.25 0 4 C0 2.68 0 1.36 0 0 Z " fill="#4B9442" transform="translate(183,124)"/>
<path d="M0 0 C0.33 0 0.66 0 1 0 C1.05391993 1.79133978 1.09275571 3.58313899 1.125 5.375 C1.14820313 6.37273437 1.17140625 7.37046875 1.1953125 8.3984375 C1 11 1 11 -1 13 C-0.979375 11.9275 -0.95875 10.855 -0.9375 9.75 C-0.84356237 6.20424619 -0.84356237 6.20424619 -1.625 3.6875 C-1.74875 3.130625 -1.8725 2.57375 -2 2 C-1.34 1.34 -0.68 0.68 0 0 Z " fill="#45983C" transform="translate(210,115)"/>
<path d="M0 0 C0.99 0.33 1.98 0.66 3 1 C3.73046875 2.84765625 3.73046875 2.84765625 4.1875 5.0625 C4.34605469 5.79597656 4.50460938 6.52945313 4.66796875 7.28515625 C4.83232422 8.13400391 4.83232422 8.13400391 5 9 C4.34 9 3.68 9 3 9 C0 3.375 0 3.375 0 0 Z " fill="#4B9340" transform="translate(90,115)"/>
<path d="M0 0 C0.66 0.33 1.32 0.66 2 1 C1.51789063 1.39832031 1.03578125 1.79664062 0.5390625 2.20703125 C-0.09257812 2.73683594 -0.72421875 3.26664062 -1.375 3.8125 C-2.00148437 4.33457031 -2.62796875 4.85664062 -3.2734375 5.39453125 C-5.2221048 7.08225739 -5.2221048 7.08225739 -7 10 C-7.66 10 -8.32 10 -9 10 C-7.61811547 6.78956118 -6.07578097 4.95063635 -3.375 2.75 C-2.74335938 2.22921875 -2.11171875 1.7084375 -1.4609375 1.171875 C-0.73777344 0.59179688 -0.73777344 0.59179688 0 0 Z " fill="#519048" transform="translate(238,101)"/>
<path d="M0 0 C0.66 0.99 1.32 1.98 2 3 C0.625 4.5 0.625 4.5 -1 6 C-1.66 6 -2.32 6 -3 6 C-3.33 6.99 -3.66 7.98 -4 9 C-4.66 8.67 -5.32 8.34 -6 8 C-4.02 5.36 -2.04 2.72 0 0 Z " fill="#409A35" transform="translate(165,78)"/>
<path d="M0 0 C0.66 0 1.32 0 2 0 C2.94693195 3.7016431 3.30443767 5.39112465 1.5625 8.875 C1.046875 9.57625 0.53125 10.2775 0 11 C-1.16659166 7.50022502 -0.68403157 5.57216487 0 2 C0 1.34 0 0.68 0 0 Z " fill="#3F6840" transform="translate(680,135)"/>
<path d="M0 0 C1.98 0.99 1.98 0.99 4 2 C4 2.66 4 3.32 4 4 C4.66 4 5.32 4 6 4 C6 5.32 6 6.64 6 8 C4.125 7.375 4.125 7.375 2 6 C0.75 2.875 0.75 2.875 0 0 Z " fill="#2D9D26" transform="translate(289,123)"/>
<path d="M0 0 C1.98 0 3.96 0 6 0 C6.33 1.65 6.66 3.3 7 5 C4.625 4.75 4.625 4.75 2 4 C0.6875 1.9375 0.6875 1.9375 0 0 Z " fill="#2A9E2D" transform="translate(132,119)"/>
<path d="M0 0 C2.25 -0.3125 2.25 -0.3125 5 0 C7.3125 2.5 7.3125 2.5 9 5 C8.67 5.66 8.34 6.32 8 7 C7.6596875 6.0409375 7.6596875 6.0409375 7.3125 5.0625 C6.15983399 2.72567164 6.15983399 2.72567164 3.4375 2.375 C2.633125 2.25125 1.82875 2.1275 1 2 C0.67 1.34 0.34 0.68 0 0 Z " fill="#499641" transform="translate(214,94)"/>
<path d="M0 0 C0.33 1.32 0.66 2.64 1 4 C-3 4 -3 4 -6 2 C-2.25 0 -2.25 0 0 0 Z " fill="#2B7530" transform="translate(635,132)"/>
<path d="M0 0 C1.26426661 3.79279982 0.40145184 5.34065352 -1 9 C-1.33 9.66 -1.66 10.32 -2 11 C-2.66 11 -3.32 11 -4 11 C-3.52269162 9.5410574 -3.04308958 8.08286504 -2.5625 6.625 C-2.29566406 5.81289062 -2.02882813 5.00078125 -1.75390625 4.1640625 C-1 2 -1 2 0 0 Z " fill="#49943F" transform="translate(111,110)"/>
<path d="M0 0 C0 0.33 0 0.66 0 1 C-0.61488281 1.19335938 -1.22976562 1.38671875 -1.86328125 1.5859375 C-3.07564453 1.97652344 -3.07564453 1.97652344 -4.3125 2.375 C-5.51326172 2.75785156 -5.51326172 2.75785156 -6.73828125 3.1484375 C-9.22724528 3.98831811 -9.22724528 3.98831811 -12 6 C-11.66411682 3.48087612 -11.42645046 2.32803881 -9.375 0.75 C-6.1989627 -0.25295915 -3.30771122 -0.12721966 0 0 Z " fill="#4F904A" transform="translate(195,107)"/>
<path d="M0 0 C3.76024616 2.50683077 4.39192086 4.86493934 6 9 C3.5067466 8.00269864 2.22532561 7.34925469 0.75 5.0625 C0 3 0 3 0 0 Z " fill="#405E4E" transform="translate(393,149)"/>
<path d="M0 0 C0.99 0.33 1.98 0.66 3 1 C2 5 2 5 1 9 C-1 6 -1 6 -0.625 2.8125 C-0.41875 1.884375 -0.2125 0.95625 0 0 Z " fill="#307632" transform="translate(576,124)"/>
<path d="M0 0 C1.65 0 3.3 0 5 0 C5 1.65 5 3.3 5 5 C4.34 4.34 3.68 3.68 3 3 C2.01 3.495 2.01 3.495 1 4 C0.34 3.67 -0.32 3.34 -1 3 C-0.67 2.01 -0.34 1.02 0 0 Z " fill="#3F9C36" transform="translate(261,80)"/>
<path d="M0 0 C0.33 0 0.66 0 1 0 C0.67 2.64 0.34 5.28 0 8 C-1.65 8.33 -3.3 8.66 -5 9 C-4.34 8.67 -3.68 8.34 -3 8 C-1.48304705 5.41225673 -0.62684577 2.92528027 0 0 Z " fill="#417842" transform="translate(679,138)"/>
<path d="M0 0 C0.99 0.99 1.98 1.98 3 3 C2.34 4.65 1.68 6.3 1 8 C0.34 7.67 -0.32 7.34 -1 7 C-0.67 4.69 -0.34 2.38 0 0 Z " fill="#346E35" transform="translate(608,141)"/>
<path d="M0 0 C-0.66 1.32 -1.32 2.64 -2 4 C-3.32 4 -4.64 4 -6 4 C-6 3.01 -6 2.02 -6 1 C-3 0 -3 0 0 0 Z " fill="#309E2B" transform="translate(278,114)"/>
<path d="M0 0 C2.12508244 3.18762365 2.5020163 5.26512223 3 9 C1.35 8.67 -0.3 8.34 -2 8 C-1.34 7.67 -0.68 7.34 0 7 C0 4.69 0 2.38 0 0 Z " fill="#47933D" transform="translate(92,85)"/>
<path d="M0 0 C1.98 0 3.96 0 6 0 C6.33 0.99 6.66 1.98 7 3 C5.02 3.33 3.04 3.66 1 4 C1.33 3.34 1.66 2.68 2 2 C1.34 1.34 0.68 0.68 0 0 Z " fill="#427844" transform="translate(645,144)"/>
<path d="M0 0 C0.66 0 1.32 0 2 0 C1.67 1.65 1.34 3.3 1 5 C-0.32 4.67 -1.64 4.34 -3 4 C-1.625 2 -1.625 2 0 0 Z " fill="#29A027" transform="translate(200,125)"/>
<path d="M0 0 C0.99 0.33 1.98 0.66 3 1 C3 1.99 3 2.98 3 4 C1.68 4.33 0.36 4.66 -1 5 C-1 1 -1 1 0 0 Z " fill="#348030" transform="translate(618,121)"/>
</svg>
