<?xml version="1.0" encoding="utf-8" standalone="yes"?>
<!DOCTYPE svg PUBLIC "-//W3C//DTD SVG 1.1//EN" "http://www.w3.org/Graphics/SVG/1.1/DTD/svg11.dtd">
<svg width="290" height="290" viewBox="0 0 290 290" style="fill:none;stroke:none;fill-rule:evenodd;clip-rule:evenodd;stroke-linecap:round;stroke-linejoin:round;stroke-miterlimit:1.5;" version="1.1" xmlns="http://www.w3.org/2000/svg" xmlns:xlink="http://www.w3.org/1999/xlink"><g id="items" style="isolation: isolate"><g id="blend" style="mix-blend-mode:normal"><g id="g-root-fire_1d300pt3dmf4f-fill" data-item-order="0" transform="translate(45, 39)"></g><g id="g-root-fire_1d300pt3dmf4f-stroke" data-item-order="0" transform="translate(45, 39)"><g id="fire_1d300pt3dmf4f-stroke" fill="none" stroke-linecap="round" stroke-linejoin="round" stroke-miterlimit="4" stroke="#43dd93" stroke-width="2"><g><path d="M 77.5 162.902496C 38.987522 157.06131 11.357308 122.709717 13.907523 83.840355C 16.457739 44.970997 48.339386 14.523953 87.284912 13.764784C 126.230446 13.005616 159.274429 42.187057 163.337494 80.927498M 58.907501 88.7425L 88.735001 88.7425L 88.7425 43.7425M 151.487503 156.932495C 148.654205 164.717514 140.046402 168.73172 132.261337 165.898529C 124.476288 163.065338 120.461945 154.457611 123.295006 146.672516M 131.3125 113.68L 136.75 131.619995L 119.1325 125.207504M 166.555008 126.512497L 150.857498 136.757492L 168.474991 143.169998M 96.235001 141.235001C 96.235001 166.087814 116.382187 186.235016 141.235016 186.235016C 166.087814 186.235016 186.235016 166.087814 186.235016 141.235016C 186.235016 116.382187 166.087814 96.235001 141.235016 96.235001C 116.382187 96.235001 96.235001 116.382187 96.235001 141.235016"></path></g></g></g></g></g></svg>